<?xml version="1.0" encoding="utf-8"?>
<!-- Generator: Adobe Illustrator 16.0.0, SVG Export Plug-In . SVG Version: 6.00 Build 0)  -->
<!DOCTYPE svg PUBLIC "-//W3C//DTD SVG 1.1//EN" "http://www.w3.org/Graphics/SVG/1.1/DTD/svg11.dtd">
<svg version="1.1" id="Layer_1" xmlns="http://www.w3.org/2000/svg" xmlns:xlink="http://www.w3.org/1999/xlink" x="0px" y="0px"
	 width="100px" height="100px" viewBox="0 0 100 100" enable-background="new 0 0 100 100" xml:space="preserve">
<path d="M94.331,17.334H5.669c-2.576,0-4.667-2.091-4.667-4.665c0-2.576,2.091-4.667,4.667-4.667h88.662
	c2.574,0,4.667,2.091,4.667,4.667C98.998,15.244,96.908,17.334,94.331,17.334z M10.336,26.668h69.996
	c2.575,0,4.667,2.091,4.667,4.667S82.907,36,80.332,36H10.336c-2.576,0-4.667-2.091-4.667-4.665
	C5.669,28.757,7.76,26.668,10.336,26.668z M38.333,45.334h51.333c2.575,0,4.665,2.091,4.665,4.665c0,2.575-2.09,4.667-4.665,4.667
	H38.333c-2.576,0-4.664-2.092-4.664-4.667C33.669,47.425,35.757,45.334,38.333,45.334z M43,82.666h13.999
	c2.577,0,4.667,2.09,4.667,4.664c0,2.576-2.09,4.668-4.667,4.668H43c-2.576,0-4.667-2.092-4.667-4.668
	C38.333,84.756,40.424,82.666,43,82.666z M45.334,68.664c0-2.576,2.091-4.664,4.667-4.664h32.664c2.575,0,4.667,2.092,4.667,4.664
	c0,2.578-2.092,4.668-4.667,4.668H50.001C47.425,73.332,45.334,71.242,45.334,68.664z"/>
</svg>
