<?xml version="1.0" encoding="utf-8"?>
<!-- Generator: Adobe Illustrator 16.0.0, SVG Export Plug-In . SVG Version: 6.00 Build 0)  -->
<!DOCTYPE svg PUBLIC "-//W3C//DTD SVG 1.1//EN" "http://www.w3.org/Graphics/SVG/1.1/DTD/svg11.dtd">
<svg version="1.1" id="Layer_1" xmlns="http://www.w3.org/2000/svg" xmlns:xlink="http://www.w3.org/1999/xlink" x="0px" y="0px"
	 width="100px" height="100px" viewBox="0 0 100 100" enable-background="new 0 0 100 100" xml:space="preserve">
<path d="M94.482,17.222H5.517c-2.585,0-4.683-2.098-4.683-4.681c0-2.585,2.098-4.683,4.683-4.683h88.966
	c2.586,0,4.684,2.098,4.684,4.683C99.166,15.124,97.07,17.222,94.482,17.222z M10.2,26.588h70.236c2.584,0,4.684,2.098,4.684,4.683
	s-2.1,4.681-4.684,4.681H10.2c-2.585,0-4.683-2.098-4.683-4.681C5.517,28.684,7.615,26.588,10.2,26.588z M38.293,45.318h51.509
	c2.584,0,4.68,2.098,4.68,4.681c0,2.583-2.096,4.683-4.68,4.683H38.293c-2.585,0-4.681-2.1-4.681-4.683
	C33.613,47.416,35.708,45.318,38.293,45.318z M42.976,82.777h14.047c2.586,0,4.684,2.098,4.684,4.682s-2.098,4.684-4.684,4.684
	H42.976c-2.585,0-4.683-2.1-4.683-4.684S40.391,82.777,42.976,82.777z M45.318,68.729c0-2.586,2.098-4.682,4.683-4.682h32.776
	c2.584,0,4.684,2.1,4.684,4.682c0,2.586-2.1,4.684-4.684,4.684H50.001C47.416,73.412,45.318,71.314,45.318,68.729z"/>
</svg>
