<?xml version="1.0" encoding="utf-8"?>
<!-- Generator: Adobe Illustrator 16.0.0, SVG Export Plug-In . SVG Version: 6.00 Build 0)  -->
<!DOCTYPE svg PUBLIC "-//W3C//DTD SVG 1.1//EN" "http://www.w3.org/Graphics/SVG/1.1/DTD/svg11.dtd">
<svg version="1.1" id="Layer_1" xmlns="http://www.w3.org/2000/svg" xmlns:xlink="http://www.w3.org/1999/xlink" x="0px" y="0px"
	 width="100px" height="100px" viewBox="0 0 100 100" enable-background="new 0 0 100 100" xml:space="preserve">
<path d="M81.5,70.931v-9.858c5.37-3.117,8.995-8.912,8.995-15.571c0-9.941-8.054-18.001-17.996-18.001
	c-3.605,0-6.939,1.083-9.751,2.906C59.975,18.444,49.306,9.502,36.501,9.502c-14.912,0-26.998,12.087-26.998,27
	c0,7.986,3.486,15.14,8.996,20.084v11.058C7.752,61.413,0.504,49.818,0.504,36.501c0-19.882,16.115-35.998,35.998-35.998
	c13.511,0,25.266,7.452,31.422,18.456c1.494-0.253,3.007-0.46,4.575-0.46c14.911,0,26.997,12.091,26.997,27.001
	C99.496,57.25,91.978,67.221,81.5,70.931z M32.001,45.501c2.484,0,4.5,2.015,4.5,4.5v8.997c0,2.487-2.016,4.5-4.5,4.5
	c-2.486,0-4.501-2.013-4.501-4.5v-8.997C27.5,47.515,29.515,45.501,32.001,45.501z M32.001,72.499c2.484,0,4.5,2.015,4.5,4.5v8.996
	c0,2.487-2.016,4.5-4.5,4.5c-2.486,0-4.501-2.013-4.501-4.5v-8.996C27.5,74.512,29.515,72.499,32.001,72.499z M49.997,54.499
	c2.486,0,4.502,2.017,4.502,4.5v8.999c0,2.485-2.016,4.501-4.502,4.501c-2.483,0-4.496-2.016-4.496-4.501v-8.999
	C45.501,56.516,47.516,54.499,49.997,54.499z M49.997,81.5c2.486,0,4.502,2.016,4.502,4.495v9c0,2.487-2.016,4.501-4.502,4.501
	c-2.483,0-4.496-2.014-4.496-4.501v-9C45.501,83.513,47.516,81.5,49.997,81.5z M67.998,45.501c2.483,0,4.501,2.015,4.501,4.5v8.997
	c0,2.487-2.018,4.5-4.501,4.5c-2.486,0-4.499-2.013-4.499-4.5v-8.997C63.499,47.515,65.512,45.501,67.998,45.501z M67.998,72.499
	c2.483,0,4.501,2.015,4.501,4.5v8.996c0,2.487-2.018,4.5-4.501,4.5c-2.486,0-4.499-2.013-4.499-4.5v-8.996
	C63.499,74.512,65.512,72.499,67.998,72.499z"/>
</svg>
