<?xml version="1.0" encoding="utf-8"?>
<!-- Generator: Adobe Illustrator 16.0.0, SVG Export Plug-In . SVG Version: 6.00 Build 0)  -->
<!DOCTYPE svg PUBLIC "-//W3C//DTD SVG 1.1//EN" "http://www.w3.org/Graphics/SVG/1.1/DTD/svg11.dtd">
<svg version="1.1" id="Layer_1" xmlns="http://www.w3.org/2000/svg" xmlns:xlink="http://www.w3.org/1999/xlink" x="0px" y="0px"
	 width="100px" height="100px" viewBox="0 0 100 100" enable-background="new 0 0 100 100" xml:space="preserve">
<path d="M81.395,70.857v-9.824c5.356-3.104,8.971-8.883,8.971-15.519c0-9.907-8.033-17.94-17.941-17.94
	c-3.589,0-6.911,1.077-9.719,2.895C59.945,18.546,49.309,9.636,36.546,9.636c-14.859,0-26.907,12.047-26.907,26.907
	c0,7.96,3.479,15.088,8.971,20.014V67.58C7.896,61.375,0.669,49.815,0.669,36.542c0-19.813,16.063-35.875,35.877-35.875
	c13.466,0,25.182,7.425,31.318,18.396c1.489-0.254,3.001-0.46,4.56-0.46c14.862,0,26.907,12.047,26.907,26.91
	C99.331,57.227,91.841,67.16,81.395,70.857z M32.062,45.514c2.477,0,4.483,2.011,4.483,4.485v35.877
	c0,2.479-2.007,4.484-4.483,4.484c-2.476,0-4.484-2.006-4.484-4.484V50C27.578,47.525,29.587,45.514,32.062,45.514z M50.002,54.484
	c2.476,0,4.485,2.008,4.485,4.484v35.879c0,2.477-2.01,4.484-4.485,4.484c-2.477,0-4.485-2.008-4.485-4.484V58.969
	C45.517,56.49,47.525,54.484,50.002,54.484z M67.938,45.514c2.478,0,4.485,2.011,4.485,4.485v35.877
	c0,2.479-2.008,4.484-4.485,4.484c-2.475,0-4.484-2.006-4.484-4.484V50C63.454,47.525,65.464,45.514,67.938,45.514z"/>
</svg>
