<?xml version="1.0" encoding="utf-8"?>
<!-- Generator: Adobe Illustrator 16.0.0, SVG Export Plug-In . SVG Version: 6.00 Build 0)  -->
<!DOCTYPE svg PUBLIC "-//W3C//DTD SVG 1.1//EN" "http://www.w3.org/Graphics/SVG/1.1/DTD/svg11.dtd">
<svg version="1.1" id="Layer_1" xmlns="http://www.w3.org/2000/svg" xmlns:xlink="http://www.w3.org/1999/xlink" x="0px" y="0px"
	 width="100px" height="100px" viewBox="0 0 100 100" enable-background="new 0 0 100 100" xml:space="preserve">
<path d="M81.342,70.822v-9.809c5.348-3.098,8.955-8.867,8.955-15.491c0-9.891-8.02-17.909-17.91-17.909
	c-3.584,0-6.9,1.074-9.703,2.89C59.93,18.6,49.31,9.705,36.569,9.705c-14.834,0-26.861,12.026-26.861,26.86
	c0,7.946,3.473,15.063,8.955,19.979v11.006C7.969,61.355,0.753,49.816,0.753,36.565c0-19.779,16.037-35.813,35.816-35.813
	c13.442,0,25.14,7.413,31.265,18.365c1.486-0.254,2.996-0.459,4.553-0.459c14.836,0,26.859,12.026,26.859,26.864
	C99.246,57.215,91.77,67.132,81.342,70.822z M32.094,45.522c2.472,0,4.475,2.007,4.475,4.478v35.815
	c0,2.475-2.003,4.478-4.475,4.478s-4.478-2.003-4.478-4.478V50C27.617,47.529,29.623,45.522,32.094,45.522z M50.002,54.478
	c2.471,0,4.479,2.005,4.479,4.478v35.815c0,2.473-2.008,4.478-4.479,4.478c-2.472,0-4.478-2.005-4.478-4.478V58.955
	C45.524,56.479,47.53,54.478,50.002,54.478z M67.908,45.522c2.473,0,4.479,2.007,4.479,4.478v35.815
	c0,2.475-2.006,4.478-4.479,4.478c-2.471,0-4.477-2.003-4.477-4.478V50C63.432,47.529,65.438,45.522,67.908,45.522z"/>
</svg>
