<?xml version="1.0" encoding="utf-8"?>
<!-- Generator: Adobe Illustrator 16.0.0, SVG Export Plug-In . SVG Version: 6.00 Build 0)  -->
<!DOCTYPE svg PUBLIC "-//W3C//DTD SVG 1.1//EN" "http://www.w3.org/Graphics/SVG/1.1/DTD/svg11.dtd">
<svg version="1.1" id="Layer_1" xmlns="http://www.w3.org/2000/svg" xmlns:xlink="http://www.w3.org/1999/xlink" x="0px" y="0px"
	 width="100px" height="100px" viewBox="0 0 100 100" enable-background="new 0 0 100 100" xml:space="preserve">
<path d="M77.049,78.903V69.7c7.772-2.008,13.527-9.044,13.527-17.445c0-9.957-8.075-18.032-18.033-18.032
	c-3.609,0-6.953,1.082-9.771,2.91c-2.776-11.986-13.466-20.946-26.296-20.946c-14.94,0-27.051,12.113-27.051,27.054
	c0,10.005,5.449,18.724,13.524,23.4v10.02C9.737,71.306,0.408,58.371,0.408,43.238c0-19.918,16.146-36.069,36.067-36.069
	c13.536,0,25.317,7.467,31.484,18.496c1.497-0.256,3.012-0.463,4.584-0.463c14.938,0,27.049,12.113,27.049,27.048
	C99.592,65.658,89.839,76.75,77.049,78.903z M34.38,65.781c1.248-2.157,4.002-2.893,6.16-1.648l4.951,2.855v-5.716
	c0-2.487,2.02-4.509,4.509-4.509c2.488,0,4.509,2.021,4.509,4.509v5.716l4.949-2.857c2.158-1.242,4.914-0.507,6.156,1.65
	c1.246,2.158,0.506,4.914-1.647,6.158l-4.951,2.86l4.951,2.857c2.153,1.246,2.894,4.003,1.647,6.16
	c-1.244,2.151-3.998,2.891-6.156,1.645l-4.949-2.855v5.716c0,2.492-2.021,4.509-4.509,4.509c-2.489,0-4.509-2.017-4.509-4.509
	v-5.716l-4.948,2.86c-2.158,1.246-4.915,0.508-6.159-1.645c-1.245-2.158-0.508-4.917,1.65-6.16l4.948-2.862l-4.948-2.858
	C33.876,70.695,33.139,67.939,34.38,65.781z M50,79.309c2.488,0,4.509-2.019,4.509-4.509S52.488,70.291,50,70.291
	c-2.489,0-4.509,2.019-4.509,4.509C45.491,77.287,47.511,79.309,50,79.309z"/>
</svg>
