<?xml version="1.0" encoding="utf-8"?>
<!-- Generator: Adobe Illustrator 16.0.0, SVG Export Plug-In . SVG Version: 6.00 Build 0)  -->
<!DOCTYPE svg PUBLIC "-//W3C//DTD SVG 1.1//EN" "http://www.w3.org/Graphics/SVG/1.1/DTD/svg11.dtd">
<svg version="1.1" id="Layer_1" xmlns="http://www.w3.org/2000/svg" xmlns:xlink="http://www.w3.org/1999/xlink" x="0px" y="0px"
	 width="100px" height="100px" viewBox="0 0 100 100" enable-background="new 0 0 100 100" xml:space="preserve">
<path d="M76.998,78.848v-9.185c7.757-2.004,13.501-9.027,13.501-17.413c0-9.938-8.061-17.997-17.999-17.997
	c-3.602,0-6.939,1.08-9.753,2.904c-2.771-11.964-13.44-20.906-26.246-20.906c-14.912,0-27,12.091-27,27.002
	c0,9.986,5.438,18.688,13.499,23.355v10.001C9.814,71.265,0.503,58.355,0.503,43.251c0-19.88,16.116-36,35.998-36
	c13.51,0,25.269,7.452,31.424,18.46c1.494-0.255,3.006-0.461,4.575-0.461c14.909,0,26.997,12.09,26.997,26.996
	C99.497,65.629,89.763,76.699,76.998,78.848z M34.41,65.752c1.245-2.154,3.995-2.888,6.148-1.646l4.941,2.851v-5.705
	c0-2.483,2.016-4.5,4.5-4.5c2.483,0,4.5,2.017,4.5,4.5v5.705l4.94-2.853c2.153-1.239,4.904-0.506,6.144,1.648
	c1.244,2.153,0.506,4.904-1.644,6.146l-4.942,2.854l4.942,2.853c2.149,1.243,2.888,3.995,1.644,6.148
	c-1.241,2.146-3.99,2.885-6.144,1.642l-4.94-2.851v5.705c0,2.487-2.017,4.5-4.5,4.5c-2.484,0-4.5-2.013-4.5-4.5v-5.705l-4.938,2.854
	c-2.154,1.244-4.906,0.508-6.147-1.642c-1.243-2.153-0.506-4.906,1.647-6.148L41,74.752L36.061,71.9
	C33.907,70.656,33.171,67.905,34.41,65.752z M50,79.252c2.483,0,4.5-2.015,4.5-4.5s-2.017-4.5-4.5-4.5c-2.484,0-4.5,2.015-4.5,4.5
	C45.5,77.235,47.516,79.252,50,79.252z"/>
</svg>
