<?xml version="1.0" encoding="utf-8"?>
<!-- Generator: Adobe Illustrator 16.0.0, SVG Export Plug-In . SVG Version: 6.00 Build 0)  -->
<!DOCTYPE svg PUBLIC "-//W3C//DTD SVG 1.1//EN" "http://www.w3.org/Graphics/SVG/1.1/DTD/svg11.dtd">
<svg version="1.1" id="Layer_1" xmlns="http://www.w3.org/2000/svg" xmlns:xlink="http://www.w3.org/1999/xlink" x="0px" y="0px"
	 width="100px" height="100px" viewBox="0 0 100 100" enable-background="new 0 0 100 100" xml:space="preserve">
<path d="M77.134,78.994v-9.232c7.796-2.014,13.569-9.072,13.569-17.5c0-9.987-8.101-18.089-18.09-18.089
	c-3.62,0-6.975,1.086-9.802,2.92c-2.785-12.024-13.508-21.012-26.378-21.012c-14.987,0-27.136,12.151-27.136,27.138
	c0,10.037,5.466,18.783,13.567,23.474v10.051C9.611,71.372,0.253,58.397,0.253,43.217c0-19.98,16.197-36.182,36.18-36.182
	c13.578,0,25.396,7.49,31.582,18.554c1.502-0.257,3.021-0.464,4.599-0.464c14.984,0,27.134,12.151,27.134,27.133
	C99.747,65.707,89.963,76.834,77.134,78.994z M34.332,65.831c1.251-2.164,4.015-2.902,6.18-1.654l4.966,2.864v-5.733
	c0-2.495,2.026-4.522,4.523-4.522c2.496,0,4.523,2.027,4.523,4.522v5.733l4.965-2.866c2.164-1.246,4.929-0.508,6.175,1.656
	c1.25,2.164,0.508,4.93-1.652,6.177l-4.967,2.869l4.967,2.867c2.16,1.25,2.902,4.015,1.652,6.18
	c-1.248,2.157-4.011,2.899-6.175,1.649l-4.965-2.864v5.732c0,2.501-2.027,4.523-4.523,4.523c-2.497,0-4.523-2.022-4.523-4.523
	v-5.732l-4.964,2.868c-2.165,1.25-4.93,0.511-6.178-1.649c-1.249-2.164-0.509-4.932,1.655-6.18l4.964-2.871l-4.964-2.866
	C33.826,70.761,33.086,67.995,34.332,65.831z M50,79.4c2.496,0,4.523-2.025,4.523-4.523S52.496,70.354,50,70.354
	c-2.497,0-4.523,2.024-4.523,4.522C45.477,77.373,47.503,79.4,50,79.4z"/>
</svg>
