<?xml version="1.0" encoding="utf-8"?>
<!-- Generator: Adobe Illustrator 16.0.0, SVG Export Plug-In . SVG Version: 6.00 Build 0)  -->
<!DOCTYPE svg PUBLIC "-//W3C//DTD SVG 1.1//EN" "http://www.w3.org/Graphics/SVG/1.1/DTD/svg11.dtd">
<svg version="1.1" id="Layer_1" xmlns="http://www.w3.org/2000/svg" xmlns:xlink="http://www.w3.org/1999/xlink" x="0px" y="0px"
	 width="100px" height="100px" viewBox="0 0 100 100" enable-background="new 0 0 100 100" xml:space="preserve">
<path d="M95.008,81.4c-2.312,0-4.186-1.873-4.186-4.188c0-2.311,1.873-4.188,4.186-4.188s4.188,1.877,4.188,4.188
	C99.195,79.527,97.32,81.4,95.008,81.4z M76.167,67.379v-9.172c5.001-2.897,8.375-8.293,8.375-14.488
	c0-9.25-7.498-16.748-16.748-16.748c-3.352,0-6.455,1.004-9.073,2.702c-2.579-11.132-12.506-19.45-24.421-19.45
	c-13.875,0-25.122,11.247-25.122,25.12c0,7.432,3.247,14.087,8.374,18.685V64.32c-10-5.795-16.747-16.586-16.747-28.978
	C0.805,16.845,15.8,1.85,34.299,1.85c12.57,0,23.511,6.933,29.238,17.175c1.391-0.237,2.799-0.43,4.257-0.43
	c13.873,0,25.12,11.248,25.12,25.124C92.914,54.652,85.918,63.928,76.167,67.379z M7.086,83.494c2.312,0,4.186,1.875,4.186,4.188
	c0,2.312-1.874,4.187-4.186,4.187s-4.188-1.875-4.188-4.187C2.898,85.367,4.772,83.494,7.086,83.494z M28.019,47.906
	c0-2.311-0.218-4.188,2.093-4.188c2.312,0,2.094,1.877,2.094,4.188V98.15h-4.187l0,0l0,0c0-4.626-3.748-8.376-8.373-8.376v-4.187
	c3.23,0,6.15,1.258,8.373,3.26V47.906z M46.859,77.213c-2.311,0-2.093-1.873-2.093-4.188V56.28c0-2.312-0.218-4.187,2.093-4.187
	c2.312,0,2.094,1.874,2.094,4.187v16.745C48.953,75.34,49.17,77.213,46.859,77.213z M46.859,85.588c2.312,0,4.188,1.874,4.188,4.187
	c0,2.313-1.876,4.188-4.188,4.188c-2.311,0-4.187-1.874-4.187-4.188C42.672,87.46,44.548,85.588,46.859,85.588z M63.607,43.719
	c2.312,0,2.094,1.877,2.094,4.188v37.721c3.817-5.098,9.89-8.414,16.747-8.414V81.4c-9.25,0-16.747,7.499-16.747,16.75h-4.188
	c0-0.57,0.042-1.133,0.086-1.689c-0.113-0.699-0.086-1.559-0.086-2.499V47.906C61.514,45.596,61.295,43.719,63.607,43.719z"/>
</svg>
