<?xml version="1.0" encoding="utf-8"?>
<!-- Generator: Adobe Illustrator 16.0.0, SVG Export Plug-In . SVG Version: 6.00 Build 0)  -->
<!DOCTYPE svg PUBLIC "-//W3C//DTD SVG 1.1//EN" "http://www.w3.org/Graphics/SVG/1.1/DTD/svg11.dtd">
<svg version="1.1" id="Layer_1" xmlns="http://www.w3.org/2000/svg" xmlns:xlink="http://www.w3.org/1999/xlink" x="0px" y="0px"
	 width="100px" height="100px" viewBox="0 0 100 100" enable-background="new 0 0 100 100" xml:space="preserve">
<path d="M81.392,70.856v-9.823c5.358-3.104,8.968-8.883,8.968-15.519c0-9.906-8.031-17.939-17.937-17.939
	c-3.592,0-6.916,1.076-9.719,2.896C59.945,18.547,49.307,9.637,36.545,9.637c-14.859,0-26.906,12.047-26.906,26.906
	c0,7.96,3.477,15.089,8.968,20.014v11.024C7.896,61.374,0.671,49.816,0.671,36.543c0-19.812,16.061-35.874,35.874-35.874
	c13.464,0,25.183,7.425,31.318,18.396c1.486-0.253,2.996-0.459,4.56-0.459c14.858,0,26.906,12.046,26.906,26.909
	C99.329,57.227,91.835,67.16,81.392,70.856z M32.062,72.421c-2.476,0-2.243-2.007-2.243-4.481V50c0-2.475-0.233-4.485,2.243-4.485
	c2.475,0,2.243,2.011,2.243,4.485v17.939C34.305,70.414,34.537,72.421,32.062,72.421z M32.062,81.391
	c2.475,0,4.483,2.011,4.483,4.485c0,2.479-2.008,4.485-4.483,4.485c-2.476,0-4.485-2.007-4.485-4.485
	C27.577,83.401,29.584,81.391,32.062,81.391z M50,81.391c-2.476,0-2.243-2.006-2.243-4.484V58.97c0-2.477-0.233-4.485,2.243-4.485
	c2.477,0,2.242,2.009,2.242,4.485v17.937C52.242,79.385,52.477,81.391,50,81.391z M50,90.361c2.477,0,4.483,2.008,4.483,4.484
	S52.477,99.331,50,99.331c-2.476,0-4.485-2.009-4.485-4.485C45.515,92.367,47.522,90.361,50,90.361z M67.938,72.421
	c-2.475,0-2.243-2.007-2.243-4.481V50c0-2.475-0.231-4.485,2.243-4.485c2.474,0,2.242,2.011,2.242,4.485v17.939
	C70.181,70.414,70.412,72.421,67.938,72.421z M67.938,81.391c2.474,0,4.484,2.011,4.484,4.485c0,2.479-2.011,4.485-4.484,4.485
	c-2.475,0-4.485-2.007-4.485-4.485C63.453,83.401,65.464,81.391,67.938,81.391z"/>
</svg>
