<?xml version="1.0" encoding="utf-8"?>
<!-- Generator: Adobe Illustrator 16.0.0, SVG Export Plug-In . SVG Version: 6.00 Build 0)  -->
<!DOCTYPE svg PUBLIC "-//W3C//DTD SVG 1.1//EN" "http://www.w3.org/Graphics/SVG/1.1/DTD/svg11.dtd">
<svg version="1.1" id="Layer_1" xmlns="http://www.w3.org/2000/svg" xmlns:xlink="http://www.w3.org/1999/xlink" x="0px" y="0px"
	 width="100px" height="100px" viewBox="0 0 100 100" enable-background="new 0 0 100 100" xml:space="preserve">
<path d="M3.301,65.693c-0.587-1.447-1.06-2.947-1.453-4.484h97.483c0,1.535-0.155,3.023-0.405,4.484H3.301z M19.193,20.849
	c5.144-2.85,11.055-4.482,17.352-4.482c6.293,0,12.19,1.637,17.329,4.482H19.193z M0.981,47.757c0.19-1.529,0.488-3.021,0.867-4.482
	h90.588c1.238,1.374,2.331,2.872,3.264,4.482H0.981z M3.301,38.789c0.631-1.554,1.375-3.048,2.208-4.485h62.076
	c0.09,0.152,0.188,0.303,0.276,0.46c1.489-0.256,3.003-0.46,4.56-0.46c5.497,0,10.605,1.654,14.861,4.485H3.301z M8.565,29.819
	c1.301-1.622,2.747-3.113,4.305-4.485h47.368c1.546,1.367,2.974,2.87,4.266,4.485H8.565z M98.922,56.724H0.981
	c-0.184-1.472-0.312-2.96-0.312-4.481h97.097C98.273,53.684,98.665,55.182,98.922,56.724z M97.766,70.179
	c-0.552,1.567-1.244,3.065-2.065,4.485H8.565c-1.132-1.411-2.146-2.913-3.056-4.485H97.766z M12.87,79.148h79.564
	c-1.523,1.699-3.245,3.217-5.155,4.485H19.193C16.914,82.372,14.811,80.853,12.87,79.148z"/>
</svg>
