<?xml version="1.0" encoding="utf-8"?>
<!-- Generator: Adobe Illustrator 16.0.0, SVG Export Plug-In . SVG Version: 6.00 Build 0)  -->
<!DOCTYPE svg PUBLIC "-//W3C//DTD SVG 1.1//EN" "http://www.w3.org/Graphics/SVG/1.1/DTD/svg11.dtd">
<svg version="1.1" id="Layer_1" xmlns="http://www.w3.org/2000/svg" xmlns:xlink="http://www.w3.org/1999/xlink" x="0px" y="0px"
	 width="100px" height="100px" viewBox="0 0 100 100" enable-background="new 0 0 100 100" xml:space="preserve">
<path d="M95.01,16.834H4.991c-2.615,0-4.738-2.123-4.738-4.736c0-2.616,2.123-4.739,4.738-4.739H95.01
	c2.613,0,4.738,2.123,4.738,4.739C99.748,14.712,97.625,16.834,95.01,16.834z M9.729,26.312h71.068c2.613,0,4.738,2.123,4.738,4.738
	s-2.125,4.736-4.738,4.736H9.729c-2.615,0-4.738-2.123-4.738-4.736C4.991,28.432,7.114,26.312,9.729,26.312z M38.155,45.263h52.119
	c2.613,0,4.736,2.123,4.736,4.736c0,2.614-2.123,4.739-4.736,4.739H38.155c-2.615,0-4.736-2.125-4.736-4.739
	C33.419,47.386,35.54,45.263,38.155,45.263z M42.894,83.166h14.212c2.617,0,4.738,2.121,4.738,4.736
	c0,2.613-2.121,4.738-4.738,4.738H42.894c-2.616,0-4.739-2.125-4.739-4.738C38.155,85.287,40.278,83.166,42.894,83.166z
	 M45.263,68.951c0-2.617,2.123-4.736,4.738-4.736h33.165c2.613,0,4.738,2.123,4.738,4.736c0,2.615-2.125,4.738-4.738,4.738H50.001
	C47.385,73.689,45.263,71.566,45.263,68.951z"/>
</svg>
