<?xml version="1.0" encoding="utf-8"?>
<!-- Generator: Adobe Illustrator 16.0.0, SVG Export Plug-In . SVG Version: 6.00 Build 0)  -->
<!DOCTYPE svg PUBLIC "-//W3C//DTD SVG 1.1//EN" "http://www.w3.org/Graphics/SVG/1.1/DTD/svg11.dtd">
<svg version="1.1" id="Layer_1" xmlns="http://www.w3.org/2000/svg" xmlns:xlink="http://www.w3.org/1999/xlink" x="0px" y="0px"
	 width="100px" height="100px" viewBox="0 0 100 100" enable-background="new 0 0 100 100" xml:space="preserve">
<path d="M2.985,65.8c-0.591-1.457-1.067-2.968-1.463-4.516h98.143c0,1.546-0.156,3.045-0.408,4.516H2.985z M18.984,20.651
	c5.179-2.869,11.129-4.513,17.47-4.513c6.335,0,12.272,1.647,17.446,4.513H18.984z M0.649,47.741
	c0.191-1.54,0.491-3.041,0.873-4.513h91.202c1.245,1.384,2.346,2.892,3.285,4.513H0.649z M2.985,38.713
	c0.635-1.564,1.384-3.067,2.222-4.516h62.497c0.091,0.153,0.189,0.305,0.278,0.464c1.499-0.259,3.022-0.464,4.59-0.464
	c5.534,0,10.678,1.666,14.962,4.516H2.985z M8.284,29.683c1.31-1.633,2.766-3.135,4.335-4.516h47.688
	c1.557,1.377,2.994,2.89,4.295,4.516H8.284z M99.253,56.769H0.649c-0.186-1.481-0.314-2.979-0.314-4.512h97.754
	C98.601,53.709,98.995,55.217,99.253,56.769z M98.089,70.315c-0.556,1.578-1.253,3.087-2.079,4.515H8.284
	c-1.14-1.42-2.161-2.932-3.077-4.515H98.089z M12.619,79.346h80.103c-1.534,1.711-3.267,3.239-5.189,4.516H18.984
	C16.69,82.592,14.572,81.062,12.619,79.346z"/>
</svg>
