<?xml version="1.0" encoding="utf-8"?>
<!-- Generator: Adobe Illustrator 16.0.0, SVG Export Plug-In . SVG Version: 6.00 Build 0)  -->
<!DOCTYPE svg PUBLIC "-//W3C//DTD SVG 1.1//EN" "http://www.w3.org/Graphics/SVG/1.1/DTD/svg11.dtd">
<svg version="1.1" id="Layer_1" xmlns="http://www.w3.org/2000/svg" xmlns:xlink="http://www.w3.org/1999/xlink" x="0px" y="0px"
	 width="100px" height="100px" viewBox="0 0 100 100" enable-background="new 0 0 100 100" xml:space="preserve">
<path d="M2.828,65.853c-0.593-1.462-1.071-2.978-1.468-4.53h98.471c0,1.551-0.157,3.055-0.409,4.53H2.828z M18.88,20.554
	c5.197-2.88,11.167-4.528,17.528-4.528c6.356,0,12.314,1.653,17.504,4.528H18.88z M0.484,47.734
	c0.192-1.545,0.493-3.052,0.876-4.528h91.507c1.25,1.388,2.354,2.901,3.296,4.528H0.484z M2.828,38.676
	c0.637-1.57,1.389-3.078,2.229-4.531h62.706c0.091,0.154,0.19,0.306,0.278,0.465c1.505-0.259,3.033-0.465,4.606-0.465
	c5.552,0,10.713,1.672,15.012,4.531H2.828z M8.145,29.614c1.314-1.638,2.775-3.145,4.349-4.53h47.848
	c1.562,1.382,3.004,2.899,4.31,4.53H8.145z M99.417,56.792H0.484c-0.186-1.487-0.315-2.99-0.315-4.527h98.08
	C98.763,53.721,99.158,55.234,99.417,56.792z M98.249,70.383c-0.557,1.584-1.256,3.098-2.086,4.531H8.145
	c-1.144-1.425-2.168-2.942-3.087-4.531H98.249z M12.494,79.444h80.371c-1.54,1.717-3.278,3.249-5.208,4.53H18.88
	C16.579,82.7,14.454,81.165,12.494,79.444z"/>
</svg>
