<?xml version="1.0" encoding="utf-8"?>
<!-- Generator: Adobe Illustrator 16.0.0, SVG Export Plug-In . SVG Version: 6.00 Build 0)  -->
<!DOCTYPE svg PUBLIC "-//W3C//DTD SVG 1.1//EN" "http://www.w3.org/Graphics/SVG/1.1/DTD/svg11.dtd">
<svg version="1.1" id="Layer_1" xmlns="http://www.w3.org/2000/svg" xmlns:xlink="http://www.w3.org/1999/xlink" x="0px" y="0px"
	 width="100px" height="100px" viewBox="0 0 100 100" enable-background="new 0 0 100 100" xml:space="preserve">
<path d="M2.991,65.798C2.4,64.341,1.924,62.83,1.528,61.283h98.131c0,1.545-0.156,3.044-0.408,4.515H2.991z M18.988,20.655
	c5.178-2.869,11.128-4.513,17.467-4.513c6.335,0,12.271,1.647,17.444,4.513H18.988z M0.655,47.742
	c0.192-1.54,0.492-3.041,0.873-4.513H92.72c1.245,1.383,2.345,2.891,3.284,4.513H0.655z M2.991,38.715
	c0.635-1.564,1.384-3.068,2.222-4.516h62.489c0.091,0.153,0.189,0.305,0.278,0.463c1.499-0.258,3.022-0.463,4.59-0.463
	c5.533,0,10.676,1.666,14.96,4.516H2.991z M8.289,29.685c1.31-1.633,2.766-3.134,4.334-4.515h47.683
	c1.557,1.377,2.994,2.889,4.295,4.515H8.289z M99.247,56.769H0.655c-0.185-1.481-0.314-2.979-0.314-4.512h97.742
	C98.595,53.708,98.989,55.216,99.247,56.769z M98.083,70.312c-0.556,1.579-1.252,3.087-2.079,4.516H8.289
	c-1.14-1.42-2.16-2.933-3.076-4.516H98.083z M12.623,79.343h80.094c-1.534,1.71-3.267,3.238-5.189,4.515h-68.54
	C16.694,82.588,14.577,81.058,12.623,79.343z"/>
</svg>
