<?xml version="1.0" encoding="utf-8"?>
<!-- Generator: Adobe Illustrator 16.0.0, SVG Export Plug-In . SVG Version: 6.00 Build 0)  -->
<!DOCTYPE svg PUBLIC "-//W3C//DTD SVG 1.1//EN" "http://www.w3.org/Graphics/SVG/1.1/DTD/svg11.dtd">
<svg version="1.1" id="Layer_1" xmlns="http://www.w3.org/2000/svg" xmlns:xlink="http://www.w3.org/1999/xlink" x="0px" y="0px"
	 width="100px" height="100px" viewBox="0 0 100 100" enable-background="new 0 0 100 100" xml:space="preserve">
<path d="M89.469,71.682v0.092h-1.359h-5.445c-2.006,0-3.629-1.623-3.629-3.629c0-2.002,1.623-3.627,3.629-3.627h5.445
	c2.004,0,3.627-1.627,3.627-3.629c0-2.004-1.623-3.631-3.627-3.631c-2.006,0-3.631-1.625-3.631-3.631
	c0-2.004,1.625-3.628,3.631-3.628c0.25,0,0.494,0.026,0.729,0.074c5.668,0.383,10.158,5.052,10.158,10.816
	C98.996,66.438,94.84,71.008,89.469,71.682z M69.961,49.999c-2.002,0-3.629-1.625-3.629-3.63c0-2.003,1.627-3.63,3.629-3.63
	c0.25,0,0.494,0.027,0.73,0.075c5.664,0.383,10.158,5.051,10.158,10.813c0,5.555-4.158,10.123-9.527,10.795v0.096h-1.361h-14.49
	c-7.283,0-20.615,0-25.432,0c-2.004,0-3.63,1.625-3.63,3.627c0,2.006,1.626,3.629,3.63,3.629h39.922h1.361v0.096
	c5.369,0.67,9.527,5.246,9.527,10.793c0,5.766-4.494,10.432-10.158,10.816c-0.236,0.045-0.482,0.074-0.73,0.074
	c-2.002,0-3.629-1.627-3.629-3.629c0-2.006,1.627-3.631,3.629-3.631c2.004,0,3.631-1.625,3.631-3.631
	c0-2.004-1.627-3.629-3.631-3.629H30.039h-1.361v-0.094c-5.371-0.672-9.528-5.244-9.528-10.795c0-1.914,0.533-3.686,1.403-5.244
	C9.181,58.965,1.003,48.19,1.003,35.482c0-16.035,12.998-29.035,29.035-29.035c10.896,0,20.38,6.011,25.344,14.89
	c1.205-0.208,2.426-0.373,3.691-0.373c10.699,0,19.578,7.724,21.412,17.899c-2.531-1.806-5.535-2.987-8.801-3.294
	c-2.5-4.385-7.209-7.345-12.611-7.345c-2.906,0-5.598,0.871-7.866,2.341c-2.235-9.648-10.841-16.861-21.169-16.861
	c-12.028,0-21.777,9.75-21.777,21.778c0,12.024,9.75,21.776,21.777,21.776c4.715,0,14.794,0,22.141,0h17.781
	c2.004,0,3.631-1.625,3.631-3.631S71.969,49.999,69.961,49.999z"/>
</svg>
