<?xml version="1.0" encoding="utf-8"?>
<!-- Generator: Adobe Illustrator 16.0.0, SVG Export Plug-In . SVG Version: 6.00 Build 0)  -->
<!DOCTYPE svg PUBLIC "-//W3C//DTD SVG 1.1//EN" "http://www.w3.org/Graphics/SVG/1.1/DTD/svg11.dtd">
<svg version="1.1" id="Layer_1" xmlns="http://www.w3.org/2000/svg" xmlns:xlink="http://www.w3.org/1999/xlink" x="0px" y="0px"
	 width="100px" height="100px" viewBox="0 0 100 100" enable-background="new 0 0 100 100" xml:space="preserve">
<path d="M86.183,54.521L86.183,54.521h-6.785c-2.497,0-4.522-2.022-4.522-4.521c0-2.497,2.025-4.523,4.522-4.523h6.785
	c2.497,0,4.522-2.026,4.522-4.521c0-2.499-2.025-4.523-4.522-4.523c-2.498,0-4.523-2.026-4.523-4.523
	c0-2.497,2.025-4.523,4.523-4.523c0.309,0,0.611,0.032,0.907,0.093c7.059,0.477,12.657,6.294,12.657,13.477
	C99.747,48.446,93.676,54.521,86.183,54.521z M63.567,45.477h-4.523H43.218H13.82c-2.497,0-4.521,2.026-4.521,4.523
	c0,2.498,2.024,4.521,4.521,4.521h4.523h9.044h6.785h9.046h6.784h9.042h4.523c7.493,0,13.569,6.078,13.569,13.569
	c0,7.183-5.6,13-12.657,13.477c-0.296,0.062-0.597,0.093-0.912,0.093c-2.498,0-4.523-2.027-4.523-4.523
	c0-2.5,2.025-4.522,4.523-4.522c2.497,0,4.522-2.027,4.522-4.523c0-2.495-2.025-4.522-4.522-4.522h-4.523h-9.042h-6.784h-9.046
	h-6.785h-9.044H13.82C6.328,63.567,0.253,57.493,0.253,50c0-7.18,5.598-12.997,12.656-13.477c0.296-0.059,0.602-0.09,0.911-0.09l0,0
	h29.398h15.826h4.523c2.497,0,4.522-2.026,4.522-4.523c0-2.497-2.025-4.523-4.522-4.523c-2.498,0-4.523-2.024-4.523-4.523
	c0-2.497,2.025-4.523,4.523-4.523c0.315,0,0.616,0.034,0.912,0.093c7.058,0.477,12.657,6.294,12.657,13.477
	C77.137,39.4,71.061,45.477,63.567,45.477z"/>
</svg>
