<?xml version="1.0" encoding="utf-8"?>
<!-- Generator: Adobe Illustrator 16.0.0, SVG Export Plug-In . SVG Version: 6.00 Build 0)  -->
<!DOCTYPE svg PUBLIC "-//W3C//DTD SVG 1.1//EN" "http://www.w3.org/Graphics/SVG/1.1/DTD/svg11.dtd">
<svg version="1.1" id="Layer_1" xmlns="http://www.w3.org/2000/svg" xmlns:xlink="http://www.w3.org/1999/xlink" x="0px" y="0px"
	 width="100px" height="100px" viewBox="0 0 100 100" enable-background="new 0 0 100 100" xml:space="preserve">
<path d="M77.197,79.062V69.81c7.816-2.019,13.602-9.095,13.602-17.541c0-10.013-8.119-18.133-18.133-18.133
	c-3.627,0-6.99,1.089-9.824,2.927c-2.791-12.053-13.54-21.062-26.44-21.062c-15.022,0-27.201,12.181-27.201,27.203
	c0,10.061,5.479,18.827,13.599,23.529v10.072C9.516,71.424,0.135,58.418,0.135,43.201c0-20.027,16.236-36.268,36.266-36.268
	c13.61,0,25.456,7.508,31.657,18.598c1.506-0.257,3.027-0.465,4.607-0.465c15.021,0,27.199,12.18,27.199,27.198
	C99.865,65.745,90.059,76.897,77.197,79.062z M34.294,65.868c1.255-2.169,4.025-2.909,6.194-1.656l4.978,2.87v-5.746
	c0-2.503,2.03-4.535,4.533-4.535c2.502,0,4.533,2.032,4.533,4.535v5.746l4.977-2.872c2.17-1.251,4.941-0.511,6.191,1.658
	c1.252,2.17,0.508,4.941-1.658,6.193l-4.979,2.874l4.979,2.875c2.166,1.252,2.91,4.023,1.658,6.194
	c-1.252,2.161-4.021,2.905-6.191,1.654l-4.977-2.874v5.748c0,2.507-2.031,4.533-4.533,4.533c-2.503,0-4.533-2.026-4.533-4.533
	v-5.748l-4.976,2.877c-2.169,1.252-4.941,0.512-6.193-1.653c-1.252-2.171-0.51-4.944,1.66-6.194l4.975-2.879l-4.975-2.872
	C33.788,70.81,33.046,68.038,34.294,65.868z M50,79.47c2.502,0,4.533-2.029,4.533-4.534c0-2.502-2.031-4.533-4.533-4.533
	c-2.503,0-4.533,2.031-4.533,4.533C45.467,77.438,47.497,79.47,50,79.47z"/>
</svg>
