<?xml version="1.0" encoding="utf-8"?>
<!-- Generator: Adobe Illustrator 16.0.0, SVG Export Plug-In . SVG Version: 6.00 Build 0)  -->
<!DOCTYPE svg PUBLIC "-//W3C//DTD SVG 1.1//EN" "http://www.w3.org/Graphics/SVG/1.1/DTD/svg11.dtd">
<svg version="1.1" id="Layer_1" xmlns="http://www.w3.org/2000/svg" xmlns:xlink="http://www.w3.org/1999/xlink" x="0px" y="0px"
	 width="100px" height="100px" viewBox="0 0 100 100" enable-background="new 0 0 100 100" xml:space="preserve">
<path d="M36.433,86.18c-19.98,0-36.18-16.197-36.18-36.179c0-19.983,16.199-36.181,36.18-36.181c13.579,0,25.395,7.49,31.582,18.552
	c1.502-0.256,3.026-0.464,4.599-0.464c14.987,0,27.134,12.151,27.134,27.138c0,14.982-12.146,27.134-27.134,27.134
	C66.337,86.18,43.665,86.18,36.433,86.18z M72.613,77.134c9.991,0,18.092-8.101,18.092-18.088c0-9.99-8.101-18.092-18.092-18.092
	c-3.62,0-6.97,1.088-9.802,2.92c-2.782-12.021-13.509-21.01-26.379-21.01c-14.985,0-27.134,12.149-27.134,27.137
	c0,14.985,12.148,27.133,27.134,27.133C44.613,77.134,65.784,77.134,72.613,77.134z"/>
</svg>
