<?xml version="1.0" encoding="utf-8"?>
<!-- Generator: Adobe Illustrator 16.0.0, SVG Export Plug-In . SVG Version: 6.00 Build 0)  -->
<!DOCTYPE svg PUBLIC "-//W3C//DTD SVG 1.1//EN" "http://www.w3.org/Graphics/SVG/1.1/DTD/svg11.dtd">
<svg version="1.1" id="Layer_1" xmlns="http://www.w3.org/2000/svg" xmlns:xlink="http://www.w3.org/1999/xlink" x="0px" y="0px"
	 width="100px" height="100px" viewBox="0 0 100 100" enable-background="new 0 0 100 100" xml:space="preserve">
<path d="M92.654,51.363L92.654,51.363c3.017,4.301,4.808,9.533,4.808,15.195c0,14.629-11.858,26.49-26.49,26.49
	c-6.126,0-28.262,0-35.321,0c-19.508,0-35.319-15.812-35.319-35.32c0-19.509,15.812-35.323,35.319-35.323
	c4.422,0,8.643,0.829,12.541,2.312l0,0C51.802,14.38,61.612,6.952,73.18,6.952c1.669,0,3.295,0.172,4.873,0.468
	c-0.29,1.269-0.458,2.589-0.458,3.947c0,9.754,7.909,17.661,17.659,17.661c1.361,0,2.681-0.168,3.95-0.459
	c0.295,1.583,0.465,3.209,0.465,4.875C99.669,40.36,96.996,46.646,92.654,51.363z M9.159,57.729c0,14.629,11.858,26.49,26.49,26.49
	c7.983,0,28.655,0,35.322,0c9.753,0,17.659-7.91,17.659-17.66c0-9.754-7.906-17.663-17.659-17.663c-3.534,0-6.809,1.065-9.569,2.85
	c-2.719-11.736-13.188-20.51-25.753-20.51C21.018,31.236,9.159,43.097,9.159,57.729z M52.32,26.605c0.002,0,0.004,0,0.004,0
	S52.322,26.605,52.32,26.605z M69.231,16.24c-6.403,1.466-11.425,6.424-13.082,12.75l0,0c4.235,3.03,7.778,6.959,10.333,11.525
	c1.466-0.25,2.95-0.453,4.489-0.453c5.778,0,11.113,1.877,15.465,5.015l0,0c1.896-2.163,3.279-4.787,3.945-7.688
	C79.666,35.393,71.226,26.961,69.231,16.24z"/>
</svg>
