<?xml version="1.0" encoding="utf-8"?>
<!-- Generator: Adobe Illustrator 16.0.0, SVG Export Plug-In . SVG Version: 6.00 Build 0)  -->
<!DOCTYPE svg PUBLIC "-//W3C//DTD SVG 1.1//EN" "http://www.w3.org/Graphics/SVG/1.1/DTD/svg11.dtd">
<svg version="1.1" id="Layer_1" xmlns="http://www.w3.org/2000/svg" xmlns:xlink="http://www.w3.org/1999/xlink" x="0px" y="0px"
	 width="100px" height="100px" viewBox="0 0 100 100" enable-background="new 0 0 100 100" xml:space="preserve">
<path d="M95.597,53.645h-7.296c-2.015,0-3.649-1.63-3.649-3.646c0-2.014,1.635-3.645,3.649-3.645h7.296
	c2.013,0,3.648,1.633,3.648,3.645C99.245,52.015,97.609,53.645,95.597,53.645z M81.263,29.363c-1.424,1.425-3.732,1.425-5.157,0
	c-1.425-1.423-1.425-3.733,0-5.157l5.157-5.158c1.427-1.425,3.735-1.425,5.159,0c1.427,1.423,1.427,3.734,0,5.158L81.263,29.363z
	 M75.889,57.833L75.889,57.833c3.191,3.805,5.118,8.7,5.118,14.055c0,12.084-9.801,21.886-21.89,21.886c-5.06,0-23.349,0-29.181,0
	c-16.116,0-29.182-13.066-29.182-29.182c0-16.118,13.065-29.184,29.182-29.184c2.868,0,5.637,0.424,8.25,1.193
	c4.005-5.157,10.248-8.489,17.283-8.489c12.088,0,21.89,9.801,21.89,21.886C77.355,52.762,76.821,55.398,75.889,57.833z
	 M8.048,64.592c0,12.088,9.798,21.885,21.887,21.885c6.597,0,23.676,0,29.183,0c8.059,0,14.591-6.535,14.591-14.589
	c0-8.059-6.532-14.593-14.591-14.593c-2.919,0-5.624,0.88-7.906,2.354c-2.243-9.696-10.896-16.943-21.276-16.943
	C17.846,42.706,8.048,52.503,8.048,64.592z M55.47,35.408c-4.035,0-7.688,1.639-10.328,4.286c4.269,2.618,7.817,6.298,10.268,10.679
	c1.211-0.207,2.438-0.375,3.708-0.375c3.878,0,7.516,1.02,10.671,2.785l0,0c0.176-0.901,0.275-1.831,0.275-2.785
	C70.063,41.942,63.527,35.408,55.47,35.408z M55.47,20.815c-2.015,0-3.647-1.633-3.647-3.646V9.874c0-2.016,1.635-3.647,3.647-3.647
	c2.016,0,3.647,1.632,3.647,3.647v7.295C59.117,19.185,57.487,20.815,55.47,20.815z M29.676,29.363l-5.156-5.157
	c-1.425-1.424-1.425-3.735,0-5.158c1.422-1.425,3.733-1.425,5.156,0l5.158,5.158c1.426,1.424,1.426,3.734,0,5.157
	C33.411,30.788,31.101,30.788,29.676,29.363z"/>
</svg>
