<?xml version="1.0" encoding="utf-8"?>
<!-- Generator: Adobe Illustrator 16.0.0, SVG Export Plug-In . SVG Version: 6.00 Build 0)  -->
<!DOCTYPE svg PUBLIC "-//W3C//DTD SVG 1.1//EN" "http://www.w3.org/Graphics/SVG/1.1/DTD/svg11.dtd">
<svg version="1.1" id="Layer_1" xmlns="http://www.w3.org/2000/svg" xmlns:xlink="http://www.w3.org/1999/xlink" x="0px" y="0px"
	 width="100px" height="100px" viewBox="0 0 100 100" enable-background="new 0 0 100 100" xml:space="preserve">
<path d="M92.554,51.359L92.554,51.359c3.011,4.294,4.796,9.513,4.796,15.16c0,14.594-11.83,26.429-26.428,26.429
	c-6.11,0-28.195,0-35.237,0c-19.463,0-35.237-15.776-35.237-35.238c0-19.463,15.774-35.239,35.237-35.239
	c4.41,0,8.621,0.826,12.513,2.307l0,0c3.6-10.313,13.388-17.726,24.928-17.726c1.664,0,3.286,0.172,4.862,0.468
	c-0.29,1.267-0.457,2.583-0.457,3.938c0,9.731,7.89,17.62,17.616,17.62c1.36,0,2.676-0.168,3.943-0.458
	c0.294,1.578,0.463,3.2,0.463,4.863C99.553,40.384,96.887,46.652,92.554,51.359z M9.254,57.71c0,14.596,11.831,26.427,26.429,26.427
	c7.965,0,28.589,0,35.239,0c9.731,0,17.618-7.891,17.618-17.617c0-9.729-7.887-17.62-17.618-17.62c-3.525,0-6.794,1.062-9.546,2.843
	C58.664,40.033,48.218,31.28,35.683,31.28C21.085,31.28,9.254,43.112,9.254,57.71z M52.315,26.66c0.002,0,0.004,0,0.004,0
	S52.317,26.66,52.315,26.66z M69.188,16.318c-6.39,1.463-11.399,6.41-13.052,12.721l0,0c4.225,3.022,7.759,6.942,10.309,11.498
	c1.462-0.249,2.945-0.451,4.478-0.451c5.766,0,11.086,1.872,15.431,5.003l0,0c1.891-2.157,3.271-4.775,3.933-7.67
	C79.596,35.428,71.176,27.016,69.188,16.318z"/>
</svg>
