<?xml version="1.0" encoding="utf-8"?>
<!-- Generator: Adobe Illustrator 16.0.0, SVG Export Plug-In . SVG Version: 6.00 Build 0)  -->
<!DOCTYPE svg PUBLIC "-//W3C//DTD SVG 1.1//EN" "http://www.w3.org/Graphics/SVG/1.1/DTD/svg11.dtd">
<svg version="1.1" id="Layer_1" xmlns="http://www.w3.org/2000/svg" xmlns:xlink="http://www.w3.org/1999/xlink" x="0px" y="0px"
	 width="100px" height="100px" viewBox="0 0 100 100" enable-background="new 0 0 100 100" xml:space="preserve">
<path d="M72.496,72.501c-0.631,0-1.461,0-2.389,0l8.064-9.928c7.158-2.378,12.324-9.119,12.324-17.073
	c0-9.94-8.057-17.996-17.998-17.996c-3.604,0-6.938,1.08-9.75,2.902C59.977,18.445,49.306,9.503,36.5,9.503
	c-14.909,0-26.997,12.088-26.997,27.001c0,12.254,8.172,22.589,19.36,25.885l-3.036,8.499C11.158,66.34,0.502,52.667,0.502,36.502
	c0-19.88,16.118-36,35.998-36c13.509,0,25.265,7.453,31.423,18.461c1.494-0.258,3.01-0.462,4.574-0.462
	c14.912,0,27,12.086,27,26.999C99.498,60.411,87.406,72.501,72.496,72.501z M45.499,40.999h22.498L54.496,63.5h15.75L40.999,99.498
	l8.101-26.997H34.248L45.499,40.999z"/>
</svg>
