<?xml version="1.0" encoding="utf-8"?>
<!-- Generator: Adobe Illustrator 16.0.0, SVG Export Plug-In . SVG Version: 6.00 Build 0)  -->
<!DOCTYPE svg PUBLIC "-//W3C//DTD SVG 1.1//EN" "http://www.w3.org/Graphics/SVG/1.1/DTD/svg11.dtd">
<svg version="1.1" id="Layer_1" xmlns="http://www.w3.org/2000/svg" xmlns:xlink="http://www.w3.org/1999/xlink" x="0px" y="0px"
	 width="100px" height="100px" viewBox="0 0 100 100" enable-background="new 0 0 100 100" xml:space="preserve">
<path d="M94.326,53.545h-7.094c-1.959,0-3.547-1.587-3.547-3.546c0-1.958,1.588-3.544,3.547-3.544h7.094
	c1.955,0,3.545,1.588,3.545,3.544C97.871,51.958,96.281,53.545,94.326,53.545z M80.391,29.939c-1.385,1.385-3.629,1.385-5.014,0
	c-1.385-1.384-1.385-3.629,0-5.014l5.014-5.015c1.387-1.384,3.631-1.384,5.018,0c1.385,1.384,1.385,3.631,0,5.015L80.391,29.939z
	 M75.166,57.614L75.166,57.614c3.102,3.699,4.977,8.459,4.977,13.662c0,11.749-9.527,21.276-21.279,21.276
	c-4.92,0-22.697,0-28.368,0c-15.666,0-28.367-12.7-28.367-28.367c0-15.669,12.701-28.369,28.367-28.369
	c2.788,0,5.48,0.411,8.021,1.159c3.893-5.014,9.962-8.253,16.8-8.253c11.752,0,21.279,9.528,21.279,21.276
	C76.592,52.686,76.074,55.249,75.166,57.614z M9.219,64.186c0,11.75,9.524,21.274,21.275,21.274c6.412,0,23.016,0,28.369,0
	c7.834,0,14.184-6.353,14.184-14.184c0-7.833-6.35-14.185-14.184-14.185c-2.838,0-5.467,0.854-7.686,2.29
	c-2.181-9.428-10.592-16.473-20.684-16.473C18.743,42.909,9.219,52.434,9.219,64.186z M55.316,35.816
	c-3.924,0-7.473,1.592-10.04,4.166c4.149,2.545,7.598,6.121,9.981,10.38c1.178-0.201,2.371-0.363,3.605-0.363
	c3.77,0,7.305,0.991,10.373,2.707l0,0c0.17-0.876,0.268-1.78,0.268-2.707C69.504,42.168,63.15,35.816,55.316,35.816z M55.316,21.63
	c-1.959,0-3.547-1.587-3.547-3.545v-7.091c0-1.959,1.592-3.547,3.547-3.547c1.959,0,3.547,1.588,3.547,3.547v7.091
	C58.863,20.045,57.277,21.63,55.316,21.63z M30.243,29.939l-5.013-5.014c-1.386-1.384-1.386-3.631,0-5.015
	c1.383-1.384,3.629-1.384,5.013,0l5.014,5.015c1.385,1.385,1.385,3.63,0,5.014C33.875,31.324,31.627,31.324,30.243,29.939z"/>
</svg>
