<?xml version="1.0" encoding="utf-8"?>
<!-- Generator: Adobe Illustrator 16.0.0, SVG Export Plug-In . SVG Version: 6.00 Build 0)  -->
<!DOCTYPE svg PUBLIC "-//W3C//DTD SVG 1.1//EN" "http://www.w3.org/Graphics/SVG/1.1/DTD/svg11.dtd">
<svg version="1.1" id="Layer_1" xmlns="http://www.w3.org/2000/svg" xmlns:xlink="http://www.w3.org/1999/xlink" x="0px" y="0px"
	 width="100px" height="100px" viewBox="0 0 100 100" enable-background="new 0 0 100 100" xml:space="preserve">
<path d="M50.002,98.998c-27.063,0-49.001-21.938-49.001-48.996c0-27.062,21.938-49,49.001-49c3.082,0,6.089,0.319,9.013,0.865
	c-0.539,2.353-0.85,4.79-0.85,7.302c0,18.042,14.627,32.666,32.67,32.666c2.512,0,4.949-0.311,7.301-0.85
	c0.543,2.928,0.861,5.931,0.861,9.017C98.998,77.061,77.061,98.998,50.002,98.998z M42.7,18.182
	c-14.52,3.32-25.363,16.291-25.363,31.82c0,18.037,14.624,32.666,32.666,32.666c15.525,0,28.498-10.844,31.816-25.363
	C61.998,53.611,46.389,38.004,42.7,18.182z"/>
</svg>
