<?xml version="1.0" encoding="utf-8"?>
<!-- Generator: Adobe Illustrator 16.0.0, SVG Export Plug-In . SVG Version: 6.00 Build 0)  -->
<!DOCTYPE svg PUBLIC "-//W3C//DTD SVG 1.1//EN" "http://www.w3.org/Graphics/SVG/1.1/DTD/svg11.dtd">
<svg version="1.1" id="Layer_1" xmlns="http://www.w3.org/2000/svg" xmlns:xlink="http://www.w3.org/1999/xlink" x="0px" y="0px"
	 width="100px" height="100px" viewBox="0 0 100 100" enable-background="new 0 0 100 100" xml:space="preserve">
<path d="M94.455,54.04h-8.08c-2.231,0-4.042-1.81-4.042-4.04c0-2.231,1.811-4.042,4.042-4.042h8.08c2.232,0,4.042,1.811,4.042,4.042
	C98.497,52.23,96.691,54.04,94.455,54.04z M78.582,27.139c-1.579,1.578-4.143,1.578-5.716,0c-1.579-1.578-1.579-4.136,0-5.715
	l5.716-5.714c1.572-1.579,4.137-1.579,5.713,0c1.575,1.578,1.575,4.137,0,5.714L78.582,27.139z M50.002,74.248
	C36.609,74.248,25.75,63.391,25.75,50c0-13.393,10.857-24.25,24.251-24.25C63.395,25.75,74.25,36.607,74.25,50
	C74.25,63.391,63.395,74.248,50.002,74.248z M50.002,33.834c-8.929,0-16.167,7.237-16.167,16.166
	c0,8.927,7.241,16.166,16.167,16.166S66.166,58.927,66.166,50C66.166,41.071,58.931,33.834,50.002,33.834z M50.002,17.669
	c-2.233,0-4.042-1.811-4.042-4.042V5.545c0-2.231,1.809-4.042,4.042-4.042c2.232,0,4.042,1.811,4.042,4.042v8.082
	C54.044,15.858,52.23,17.669,50.002,17.669z M21.423,27.139l-5.714-5.715c-1.579-1.578-1.579-4.137,0-5.714
	c1.578-1.579,4.137-1.579,5.714,0l5.715,5.714c1.578,1.579,1.578,4.138,0,5.715C25.561,28.717,23.002,28.717,21.423,27.139z
	 M17.668,50c0,2.23-1.811,4.04-4.042,4.04H5.543c-2.231,0-4.04-1.81-4.04-4.04c0-2.231,1.811-4.042,4.04-4.042h8.084
	C15.86,45.958,17.668,47.769,17.668,50z M21.423,72.862c1.579-1.577,4.138-1.577,5.715,0c1.578,1.577,1.578,4.137,0,5.716
	l-5.715,5.713c-1.578,1.579-4.137,1.579-5.714,0c-1.579-1.576-1.579-4.137,0-5.713L21.423,72.862z M50.002,82.331
	c2.232,0,4.042,1.809,4.042,4.04v8.084c0,2.232-1.81,4.042-4.042,4.042c-2.233,0-4.042-1.81-4.042-4.042v-8.084
	C45.96,84.14,47.769,82.331,50.002,82.331z M78.582,72.862l5.713,5.716c1.575,1.576,1.575,4.137,0,5.713
	c-1.576,1.579-4.141,1.579-5.713,0l-5.716-5.713c-1.579-1.579-1.579-4.139,0-5.716C74.439,71.283,76.999,71.283,78.582,72.862z"/>
</svg>
