<?xml version="1.0" encoding="utf-8"?>
<!-- Generator: Adobe Illustrator 16.0.0, SVG Export Plug-In . SVG Version: 6.00 Build 0)  -->
<!DOCTYPE svg PUBLIC "-//W3C//DTD SVG 1.1//EN" "http://www.w3.org/Graphics/SVG/1.1/DTD/svg11.dtd">
<svg version="1.1" id="Layer_1" xmlns="http://www.w3.org/2000/svg" xmlns:xlink="http://www.w3.org/1999/xlink" x="0px" y="0px"
	 width="100px" height="100px" viewBox="0 0 100 100" enable-background="new 0 0 100 100" xml:space="preserve">
<path d="M50.001,96.617c-25.747,0-46.619-20.872-46.619-46.616c0-25.747,20.872-46.619,46.619-46.619
	c2.935,0,5.794,0.304,8.575,0.823c-0.512,2.239-0.809,4.557-0.809,6.947c0,17.165,13.918,31.078,31.082,31.078
	c2.391,0,4.709-0.296,6.946-0.808c0.517,2.785,0.82,5.642,0.82,8.578C96.617,75.745,75.745,96.617,50.001,96.617z M43.054,19.728
	c-13.815,3.158-24.131,15.499-24.131,30.273c0,17.161,13.914,31.079,31.078,31.079c14.771,0,27.114-10.316,30.271-24.132
	C61.414,53.436,46.563,38.586,43.054,19.728z"/>
</svg>
