<?xml version="1.0" encoding="utf-8"?>
<!-- Generator: Adobe Illustrator 16.0.0, SVG Export Plug-In . SVG Version: 6.00 Build 0)  -->
<!DOCTYPE svg PUBLIC "-//W3C//DTD SVG 1.1//EN" "http://www.w3.org/Graphics/SVG/1.1/DTD/svg11.dtd">
<svg version="1.1" id="Layer_1" xmlns="http://www.w3.org/2000/svg" xmlns:xlink="http://www.w3.org/1999/xlink" x="0px" y="0px"
	 width="100px" height="100px" viewBox="0 0 100 100" enable-background="new 0 0 100 100" xml:space="preserve">
<path d="M94.302,54.026H86.25c-2.225,0-4.027-1.804-4.027-4.026c0-2.224,1.803-4.028,4.027-4.028h8.052
	c2.225,0,4.028,1.804,4.028,4.028C98.33,52.223,96.531,54.026,94.302,54.026z M78.482,27.218c-1.572,1.572-4.127,1.572-5.695,0
	c-1.573-1.573-1.573-4.123,0-5.696l5.695-5.695c1.568-1.574,4.123-1.574,5.694,0c1.57,1.572,1.57,4.122,0,5.695L78.482,27.218z
	 M50.002,74.164c-13.347,0-24.168-10.819-24.168-24.164c0-13.347,10.819-24.166,24.168-24.166c13.347,0,24.164,10.819,24.164,24.166
	C74.166,63.345,63.349,74.164,50.002,74.164z M50.002,33.89c-8.898,0-16.112,7.212-16.112,16.11c0,8.896,7.217,16.109,16.112,16.109
	S66.109,58.896,66.109,50C66.109,41.102,58.899,33.89,50.002,33.89z M50.002,17.78c-2.226,0-4.028-1.805-4.028-4.028V5.698
	c0-2.223,1.802-4.028,4.028-4.028c2.225,0,4.028,1.805,4.028,4.028v8.054C54.03,15.975,52.223,17.78,50.002,17.78z M21.522,27.218
	l-5.695-5.696c-1.574-1.573-1.574-4.123,0-5.695c1.572-1.574,4.122-1.574,5.695,0l5.696,5.695c1.572,1.573,1.572,4.123,0,5.696
	C25.645,28.79,23.095,28.79,21.522,27.218z M17.78,50c0,2.223-1.805,4.026-4.028,4.026H5.696c-2.223,0-4.026-1.804-4.026-4.026
	c0-2.224,1.804-4.028,4.026-4.028h8.056C15.978,45.972,17.78,47.776,17.78,50z M21.522,72.783c1.573-1.571,4.123-1.571,5.696,0
	c1.572,1.572,1.572,4.123,0,5.695l-5.696,5.694c-1.573,1.574-4.123,1.574-5.695,0c-1.574-1.571-1.574-4.122,0-5.694L21.522,72.783z
	 M50.002,82.221c2.225,0,4.028,1.801,4.028,4.025v8.056c0,2.225-1.804,4.028-4.028,4.028c-2.226,0-4.028-1.804-4.028-4.028v-8.056
	C45.974,84.021,47.776,82.221,50.002,82.221z M78.482,72.783l5.694,5.695c1.57,1.572,1.57,4.123,0,5.694
	c-1.571,1.574-4.126,1.574-5.694,0l-5.695-5.694c-1.573-1.572-1.573-4.123,0-5.695C74.355,71.21,76.906,71.21,78.482,72.783z"/>
</svg>
