<?xml version="1.0" encoding="utf-8"?>
<!-- Generator: Adobe Illustrator 16.0.0, SVG Export Plug-In . SVG Version: 6.00 Build 0)  -->
<!DOCTYPE svg PUBLIC "-//W3C//DTD SVG 1.1//EN" "http://www.w3.org/Graphics/SVG/1.1/DTD/svg11.dtd">
<svg version="1.1" id="Layer_1" xmlns="http://www.w3.org/2000/svg" xmlns:xlink="http://www.w3.org/1999/xlink" x="0px" y="0px"
	 width="100px" height="100px" viewBox="0 0 100 100" enable-background="new 0 0 100 100" xml:space="preserve">
<path d="M81.18,70.716v-9.757c5.322-3.083,8.907-8.822,8.907-15.414c0-9.84-7.977-17.818-17.815-17.818
	c-3.567,0-6.869,1.069-9.653,2.875C59.877,18.76,49.312,9.91,36.636,9.91c-14.758,0-26.725,11.965-26.725,26.724
	c0,7.905,3.453,14.986,8.908,19.878v10.949C8.181,61.298,1.004,49.817,1.004,36.634c0-19.68,15.953-35.632,35.632-35.632
	c13.373,0,25.013,7.376,31.106,18.271c1.478-0.252,2.976-0.456,4.529-0.456c14.759,0,26.725,11.965,26.725,26.728
	C98.996,57.178,91.553,67.044,81.18,70.716z M32.183,72.27c-2.458,0-2.227-1.992-2.227-4.451V50c0-2.458-0.232-4.455,2.227-4.455
	c2.46,0,2.228,1.997,2.228,4.455v17.818C34.41,70.277,34.643,72.27,32.183,72.27z M32.183,81.179c2.46,0,4.453,1.997,4.453,4.455
	c0,2.462-1.993,4.455-4.453,4.455c-2.458,0-4.454-1.993-4.454-4.455C27.729,83.176,29.722,81.179,32.183,81.179z M50,81.179
	c-2.458,0-2.228-1.992-2.228-4.454V58.909c0-2.46-0.231-4.455,2.228-4.455c2.46,0,2.228,1.995,2.228,4.455v17.815
	C52.228,79.187,52.46,81.179,50,81.179z M50,90.089c2.46,0,4.453,1.994,4.453,4.454c0,2.461-1.993,4.455-4.453,4.455
	c-2.458,0-4.455-1.994-4.455-4.455C45.545,92.081,47.539,90.089,50,90.089z M67.817,72.27c-2.459,0-2.228-1.992-2.228-4.451V50
	c0-2.458-0.231-4.455,2.228-4.455c2.457,0,2.227,1.997,2.227,4.455v17.818C70.044,70.277,70.274,72.27,67.817,72.27z M67.817,81.179
	c2.457,0,4.454,1.997,4.454,4.455c0,2.462-1.997,4.455-4.454,4.455c-2.459,0-4.455-1.993-4.455-4.455
	C63.362,83.176,65.358,81.179,67.817,81.179z"/>
</svg>
