<?xml version="1.0" encoding="utf-8"?>
<!-- Generator: Adobe Illustrator 16.0.0, SVG Export Plug-In . SVG Version: 6.00 Build 0)  -->
<!DOCTYPE svg PUBLIC "-//W3C//DTD SVG 1.1//EN" "http://www.w3.org/Graphics/SVG/1.1/DTD/svg11.dtd">
<svg version="1.1" id="Layer_1" xmlns="http://www.w3.org/2000/svg" xmlns:xlink="http://www.w3.org/1999/xlink" x="0px" y="0px"
	 width="100px" height="100px" viewBox="0 0 100 100" enable-background="new 0 0 100 100" xml:space="preserve">
<path d="M94.566,50h-3.428v6.857c0,5.68-4.604,10.283-10.287,10.283H67.14c-5.683,0-10.283-4.604-10.283-10.283l-3.396-13.574
	c-1.186-0.082-2.386-0.141-3.569-0.141c-1.137,0-2.262,0.065-3.358,0.161l-3.392,13.554c0,5.68-4.604,10.283-10.287,10.283H19.143
	c-5.682,0-10.286-4.604-10.286-10.283V50H5.431c-1.895,0-3.429-1.533-3.429-3.429v-3.429c0-1.892,1.534-3.426,3.429-3.426h4.061
	c1.413-3.988,5.185-6.857,9.651-6.857h17.141c3.24,0,6.096,1.525,7.983,3.871c1.8-0.26,3.688-0.442,5.625-0.442
	c1.973,0,3.958,0.157,5.9,0.37c1.885-2.301,4.714-3.799,7.922-3.799h17.142c4.477,0,8.24,2.87,9.653,6.857h4.062
	c1.896,0,3.429,1.534,3.429,3.426v3.429C97.996,48.467,96.462,50,94.566,50z M30.591,38.548c-1.001-1.004-2.633-1.004-3.638,0
	L16.047,49.458c-1.004,1.004-1.004,2.632,0,3.636c1.001,1.005,2.634,1.005,3.635,0l10.91-10.907
	C31.596,41.18,31.596,39.553,30.591,38.548z M78.592,38.548c-1.005-1.004-2.636-1.004-3.641,0L64.043,49.458
	c-1.005,1.004-1.005,2.632,0,3.636c1.004,1.005,2.635,1.005,3.639,0l10.91-10.907C79.596,41.18,79.596,39.553,78.592,38.548z"/>
</svg>
