<?xml version="1.0" encoding="utf-8"?>
<!-- Generator: Adobe Illustrator 16.0.0, SVG Export Plug-In . SVG Version: 6.00 Build 0)  -->
<!DOCTYPE svg PUBLIC "-//W3C//DTD SVG 1.1//EN" "http://www.w3.org/Graphics/SVG/1.1/DTD/svg11.dtd">
<svg version="1.1" id="Layer_1" xmlns="http://www.w3.org/2000/svg" xmlns:xlink="http://www.w3.org/1999/xlink" x="0px" y="0px"
	 width="100px" height="100px" viewBox="0 0 100 100" enable-background="new 0 0 100 100" xml:space="preserve">
<path d="M71.89,71.895c-0.615,0-1.422,0-2.324,0l7.847-9.66c6.967-2.313,11.993-8.874,11.993-16.614
	c0-9.672-7.841-17.511-17.514-17.511c-3.507,0-6.75,1.051-9.487,2.825c-2.696-11.639-13.08-20.341-25.54-20.341
	c-14.508,0-26.27,11.763-26.27,26.274c0,11.924,7.952,21.979,18.838,25.187l-2.954,8.271C12.205,65.899,1.836,52.596,1.836,36.866
	c0-19.343,15.684-35.03,35.028-35.03c13.146,0,24.585,7.252,30.575,17.963c1.453-0.25,2.931-0.45,4.452-0.45
	c14.509,0,26.272,11.761,26.272,26.271C98.164,60.13,86.398,71.895,71.89,71.895z M45.62,41.242h21.89L54.375,63.137h15.324
	L41.241,98.164l7.882-26.27H34.672L45.62,41.242z"/>
</svg>
