<?xml version="1.0" encoding="utf-8"?>
<!-- Generator: Adobe Illustrator 16.0.0, SVG Export Plug-In . SVG Version: 6.00 Build 0)  -->
<!DOCTYPE svg PUBLIC "-//W3C//DTD SVG 1.1//EN" "http://www.w3.org/Graphics/SVG/1.1/DTD/svg11.dtd">
<svg version="1.1" id="Layer_1" xmlns="http://www.w3.org/2000/svg" xmlns:xlink="http://www.w3.org/1999/xlink" x="0px" y="0px"
	 width="100px" height="100px" viewBox="0 0 100 100" enable-background="new 0 0 100 100" xml:space="preserve">
<path d="M71.813,71.819c-0.611,0-1.417,0-2.316,0l7.821-9.627c6.94-2.307,11.95-8.843,11.95-16.557
	c0-9.639-7.812-17.45-17.452-17.45c-3.495,0-6.729,1.047-9.455,2.815c-2.687-11.6-13.035-20.271-25.452-20.271
	c-14.457,0-26.179,11.722-26.179,26.183c0,11.882,7.924,21.904,18.772,25.1l-2.942,8.242C12.335,65.845,2.003,52.586,2.003,36.911
	c0-19.277,15.629-34.909,34.906-34.909c13.101,0,24.5,7.227,30.47,17.901c1.45-0.25,2.92-0.447,4.438-0.447
	c14.459,0,26.181,11.719,26.181,26.18C97.997,60.096,86.273,71.819,71.813,71.819z M45.635,41.271h21.814L54.36,63.091h15.271
	L41.271,97.998l7.856-26.179H34.726L45.635,41.271z"/>
</svg>
