<?xml version="1.0" encoding="utf-8"?>
<!-- Generator: Adobe Illustrator 16.0.0, SVG Export Plug-In . SVG Version: 6.00 Build 0)  -->
<!DOCTYPE svg PUBLIC "-//W3C//DTD SVG 1.1//EN" "http://www.w3.org/Graphics/SVG/1.1/DTD/svg11.dtd">
<svg version="1.1" id="Layer_1" xmlns="http://www.w3.org/2000/svg" xmlns:xlink="http://www.w3.org/1999/xlink" x="0px" y="0px"
	 width="100px" height="100px" viewBox="0 0 100 100" enable-background="new 0 0 100 100" xml:space="preserve">
<path d="M71.662,71.668c-0.607,0-1.406,0-2.299,0l7.766-9.561c6.893-2.289,11.867-8.781,11.867-16.441
	c0-9.572-7.758-17.329-17.332-17.329c-3.469,0-6.68,1.04-9.389,2.795C59.607,19.613,49.332,11.002,37,11.002
	c-14.357,0-25.998,11.641-25.998,26.002c0,11.8,7.87,21.752,18.643,24.926l-2.923,8.185C12.596,65.734,2.335,52.568,2.335,37.002
	C2.335,17.858,17.857,2.335,37,2.335c13.009,0,24.33,7.177,30.259,17.777c1.438-0.248,2.898-0.445,4.404-0.445
	c14.359,0,26,11.639,26,25.999C97.664,60.025,86.021,71.668,71.662,71.668z M45.666,41.332h21.663L54.33,63h15.166L41.332,97.665
	l7.801-25.997H34.832L45.666,41.332z"/>
</svg>
