<?xml version="1.0" encoding="utf-8"?>
<!-- Generator: Adobe Illustrator 16.0.0, SVG Export Plug-In . SVG Version: 6.00 Build 0)  -->
<!DOCTYPE svg PUBLIC "-//W3C//DTD SVG 1.1//EN" "http://www.w3.org/Graphics/SVG/1.1/DTD/svg11.dtd">
<svg version="1.1" id="Layer_1" xmlns="http://www.w3.org/2000/svg" xmlns:xlink="http://www.w3.org/1999/xlink" x="0px" y="0px"
	 width="100px" height="100px" viewBox="0 0 100 100" enable-background="new 0 0 100 100" xml:space="preserve">
<path d="M72.268,72.273c-0.623,0-1.445,0-2.363,0l7.982-9.827c7.088-2.354,12.201-9.027,12.201-16.901
	c0-9.84-7.977-17.813-17.816-17.813c-3.568,0-6.867,1.068-9.652,2.873C59.877,18.764,49.312,9.912,36.637,9.912
	c-14.759,0-26.724,11.966-26.724,26.729c0,12.13,8.089,22.36,19.164,25.623l-3.005,8.413C11.55,66.175,1.002,52.641,1.002,36.639
	c0-19.679,15.955-35.637,35.634-35.637c13.373,0,25.01,7.378,31.105,18.274c1.479-0.255,2.98-0.457,4.529-0.457
	c14.76,0,26.727,11.964,26.727,26.726C98.998,60.306,87.029,72.273,72.268,72.273z M45.544,41.09h22.271L54.451,63.364h15.59
	L41.089,98.998l8.019-26.725H34.407L45.544,41.09z"/>
</svg>
