<?xml version="1.0" encoding="utf-8"?>
<!-- Generator: Adobe Illustrator 16.0.0, SVG Export Plug-In . SVG Version: 6.00 Build 0)  -->
<!DOCTYPE svg PUBLIC "-//W3C//DTD SVG 1.1//EN" "http://www.w3.org/Graphics/SVG/1.1/DTD/svg11.dtd">
<svg version="1.1" id="Layer_1" xmlns="http://www.w3.org/2000/svg" xmlns:xlink="http://www.w3.org/1999/xlink" x="0px" y="0px"
	 width="100px" height="100px" viewBox="0 0 100 100" enable-background="new 0 0 100 100" xml:space="preserve">
<path d="M87.313,42.087c-6.869,0-12.438,3.037-12.438,6.782c0-3.746-5.565-6.782-12.438-6.782c-4.214,0-7.925,1.15-10.173,2.9v19.71
	h2.262v9.047c0,2.498,2.025,4.522,4.523,4.522c2.497,0,4.519-2.024,4.519-4.522s2.024-4.523,4.522-4.523s4.523,2.025,4.523,4.523
	c0,7.493-6.076,13.566-13.564,13.566c-7.494,0-13.57-6.073-13.57-13.566v-9.047h2.262v-19.71c-2.249-1.75-5.958-2.9-10.177-2.9
	c-6.869,0-12.434,3.037-12.434,6.782l0,0c0-3.746-5.57-6.782-12.438-6.782S0.253,45.124,0.253,48.869
	c0-16.236,22.276-36.18,49.751-36.18c27.474,0,49.743,19.944,49.743,36.18C99.747,45.124,94.182,42.087,87.313,42.087z"/>
</svg>
