<?xml version="1.0" encoding="utf-8"?>
<!-- Generator: Adobe Illustrator 16.0.0, SVG Export Plug-In . SVG Version: 6.00 Build 0)  -->
<!DOCTYPE svg PUBLIC "-//W3C//DTD SVG 1.1//EN" "http://www.w3.org/Graphics/SVG/1.1/DTD/svg11.dtd">
<svg version="1.1" id="Layer_1" xmlns="http://www.w3.org/2000/svg" xmlns:xlink="http://www.w3.org/1999/xlink" x="0px" y="0px"
	 width="100px" height="100px" viewBox="0 0 100 100" enable-background="new 0 0 100 100" xml:space="preserve">
<path d="M77.271,79.141v-9.279c7.835-2.023,13.638-9.117,13.638-17.588c0-10.038-8.143-18.18-18.182-18.18
	c-3.638,0-7.01,1.091-9.851,2.935C60.077,24.943,49.3,15.911,36.365,15.911c-15.062,0-27.272,12.212-27.272,27.275
	c0,10.086,5.494,18.877,13.635,23.592v10.102C9.409,71.48,0.003,58.439,0.003,43.183c0-20.081,16.279-36.364,36.362-36.364
	c13.646,0,25.524,7.528,31.741,18.647C69.615,25.208,71.142,25,72.727,25c15.061,0,27.271,12.212,27.271,27.27
	C99.997,65.787,90.164,76.969,77.271,79.141z M34.253,65.91c1.257-2.174,4.035-2.916,6.21-1.662l4.991,2.879v-5.762
	c0-2.508,2.037-4.545,4.546-4.545c2.508,0,4.546,2.037,4.546,4.545v5.762l4.989-2.881c2.176-1.252,4.955-0.51,6.206,1.664
	c1.257,2.176,0.511,4.955-1.66,6.209l-4.991,2.883l4.991,2.881c2.171,1.258,2.917,4.037,1.66,6.211
	c-1.254,2.17-4.03,2.914-6.206,1.658l-4.989-2.879v5.762c0,2.514-2.038,4.547-4.546,4.547c-2.509,0-4.546-2.033-4.546-4.547v-5.762
	l-4.988,2.883c-2.175,1.258-4.956,0.514-6.209-1.658c-1.255-2.174-0.512-4.955,1.664-6.209l4.988-2.887l-4.988-2.881
	C33.745,70.865,33.001,68.086,34.253,65.91z M50,79.549c2.508,0,4.546-2.035,4.546-4.547c0-2.51-2.038-4.545-4.546-4.545
	c-2.509,0-4.546,2.035-4.546,4.545S47.491,79.549,50,79.549z"/>
</svg>
