<?xml version="1.0" encoding="utf-8"?>
<!-- Generator: Adobe Illustrator 16.0.0, SVG Export Plug-In . SVG Version: 6.00 Build 0)  -->
<!DOCTYPE svg PUBLIC "-//W3C//DTD SVG 1.1//EN" "http://www.w3.org/Graphics/SVG/1.1/DTD/svg11.dtd">
<svg version="1.1" id="Layer_1" xmlns="http://www.w3.org/2000/svg" xmlns:xlink="http://www.w3.org/1999/xlink" x="0px" y="0px"
	 width="100px" height="100px" viewBox="0 0 100 100" enable-background="new 0 0 100 100" xml:space="preserve">
<path d="M81.816,75.689v-9.957c5.432-3.15,9.09-9.008,9.09-15.733c0-10.039-8.139-18.18-18.182-18.18
	c-3.637,0-7.006,1.091-9.848,2.934C60.08,22.669,49.298,13.637,36.364,13.637c-15.062,0-27.27,12.212-27.27,27.274
	c0,8.067,3.524,15.294,9.092,20.284v11.174C7.328,66.076,0.002,54.363,0.002,40.911c0-20.083,16.281-36.364,36.361-36.364
	c13.646,0,25.523,7.528,31.74,18.647c1.51-0.257,3.039-0.466,4.621-0.466c15.062,0,27.273,12.212,27.273,27.271
	C99.998,61.869,92.4,71.938,81.816,75.689z M31.818,59.09c2.512,0,4.546,2.039,4.546,4.547c0,2.512-2.034,4.545-4.546,4.545
	c-2.509,0-4.543-2.033-4.543-4.545C27.275,61.129,29.309,59.09,31.818,59.09z M31.818,77.273c2.512,0,4.546,2.035,4.546,4.547
	c0,2.51-2.034,4.541-4.546,4.541c-2.509,0-4.543-2.033-4.543-4.541C27.275,79.307,29.309,77.273,31.818,77.273z M50.001,68.182
	c2.511,0,4.546,2.035,4.546,4.547c0,2.51-2.035,4.545-4.546,4.545c-2.511,0-4.545-2.035-4.545-4.545
	C45.456,70.215,47.49,68.182,50.001,68.182z M50.001,86.361c2.511,0,4.546,2.037,4.546,4.545c0,2.514-2.035,4.547-4.546,4.547
	c-2.511,0-4.545-2.033-4.545-4.547C45.456,88.398,47.49,86.361,50.001,86.361z M68.18,59.09c2.51,0,4.545,2.039,4.545,4.547
	c0,2.512-2.035,4.545-4.545,4.545s-4.543-2.033-4.543-4.545C63.637,61.129,65.674,59.09,68.18,59.09z M68.18,77.273
	c2.51,0,4.545,2.035,4.545,4.547c0,2.51-2.035,4.541-4.545,4.541s-4.543-2.033-4.543-4.541
	C63.637,79.307,65.674,77.273,68.18,77.273z"/>
</svg>
