<?xml version="1.0" encoding="utf-8"?>
<!-- Generator: Adobe Illustrator 16.0.0, SVG Export Plug-In . SVG Version: 6.00 Build 0)  -->
<!DOCTYPE svg PUBLIC "-//W3C//DTD SVG 1.1//EN" "http://www.w3.org/Graphics/SVG/1.1/DTD/svg11.dtd">
<svg version="1.1" id="Layer_1" xmlns="http://www.w3.org/2000/svg" xmlns:xlink="http://www.w3.org/1999/xlink" x="0px" y="0px"
	 width="100px" height="100px" viewBox="0 0 100 100" enable-background="new 0 0 100 100" xml:space="preserve">
<path d="M36.365,86.359c-20.08,0-36.359-16.277-36.359-36.358c0-20.082,16.279-36.36,36.359-36.36
	c13.646,0,25.521,7.528,31.739,18.644c1.51-0.257,3.041-0.466,4.621-0.466c15.062,0,27.269,12.212,27.269,27.271
	c0,15.059-12.207,27.27-27.269,27.27C66.418,86.359,43.634,86.359,36.365,86.359z M72.726,77.268
	c10.041,0,18.183-8.141,18.183-18.178c0-10.039-8.142-18.18-18.183-18.18c-3.638,0-7.005,1.093-9.851,2.935
	C60.078,31.762,49.299,22.73,36.365,22.73c-15.059,0-27.269,12.209-27.269,27.271c0,15.061,12.21,27.267,27.269,27.267
	C44.586,77.268,65.863,77.268,72.726,77.268z"/>
</svg>
