<?xml version="1.0" encoding="utf-8"?>
<!-- Generator: Adobe Illustrator 16.0.0, SVG Export Plug-In . SVG Version: 6.00 Build 0)  -->
<!DOCTYPE svg PUBLIC "-//W3C//DTD SVG 1.1//EN" "http://www.w3.org/Graphics/SVG/1.1/DTD/svg11.dtd">
<svg version="1.1" id="Layer_1" xmlns="http://www.w3.org/2000/svg" xmlns:xlink="http://www.w3.org/1999/xlink" x="0px" y="0px"
	 width="100px" height="100px" viewBox="0 0 100 100" enable-background="new 0 0 100 100" xml:space="preserve">
<path d="M72.572,72.577c-0.633,0-1.467,0-2.396,0l8.09-9.962c7.184-2.385,12.367-9.149,12.367-17.131
	c0-9.974-8.084-18.057-18.059-18.057c-3.617,0-6.961,1.084-9.783,2.913C60.012,18.339,49.303,9.366,36.455,9.366
	c-14.959,0-27.088,12.129-27.088,27.093c0,12.295,8.2,22.664,19.425,25.972l-3.046,8.528C11.027,66.395,0.335,52.677,0.335,36.457
	c0-19.947,16.172-36.122,36.119-36.122c13.555,0,25.35,7.478,31.528,18.522c1.5-0.258,3.021-0.463,4.592-0.463
	c14.961,0,27.09,12.127,27.09,27.09C99.664,60.446,87.533,72.577,72.572,72.577z M45.483,40.969h22.573L54.512,63.546h15.803
	L40.968,99.665l8.128-27.088H34.195L45.483,40.969z"/>
</svg>
