<?xml version="1.0" encoding="utf-8"?>
<!-- Generator: Adobe Illustrator 16.0.0, SVG Export Plug-In . SVG Version: 6.00 Build 0)  -->
<!DOCTYPE svg PUBLIC "-//W3C//DTD SVG 1.1//EN" "http://www.w3.org/Graphics/SVG/1.1/DTD/svg11.dtd">
<svg version="1.1" id="Layer_1" xmlns="http://www.w3.org/2000/svg" xmlns:xlink="http://www.w3.org/1999/xlink" x="0px" y="0px"
	 width="100px" height="100px" viewBox="0 0 100 100" enable-background="new 0 0 100 100" xml:space="preserve">
<path d="M72.57,72.576c-0.633,0-1.466,0-2.396,0l8.092-9.961c7.184-2.386,12.366-9.149,12.366-17.131
	c0-9.974-8.085-18.056-18.059-18.056c-3.616,0-6.961,1.083-9.783,2.912C60.01,18.339,49.303,9.367,36.455,9.367
	c-14.96,0-27.088,12.128-27.088,27.092c0,12.295,8.199,22.664,19.425,25.971l-3.046,8.528C11.027,66.395,0.337,52.676,0.337,36.457
	c0-19.946,16.172-36.121,36.118-36.121c13.555,0,25.35,7.478,31.527,18.522c1.499-0.258,3.021-0.463,4.591-0.463
	c14.961,0,27.09,12.126,27.09,27.089C99.663,60.445,87.532,72.576,72.57,72.576z M45.483,40.969h22.572L54.512,63.546h15.802
	L40.968,99.664l8.128-27.088h-14.9L45.483,40.969z"/>
</svg>
