<?xml version="1.0" encoding="utf-8"?>
<!-- Generator: Adobe Illustrator 16.0.0, SVG Export Plug-In . SVG Version: 6.00 Build 0)  -->
<!DOCTYPE svg PUBLIC "-//W3C//DTD SVG 1.1//EN" "http://www.w3.org/Graphics/SVG/1.1/DTD/svg11.dtd">
<svg version="1.1" id="Layer_1" xmlns="http://www.w3.org/2000/svg" xmlns:xlink="http://www.w3.org/1999/xlink" x="0px" y="0px"
	 width="100px" height="100px" viewBox="0 0 100 100" enable-background="new 0 0 100 100" xml:space="preserve">
<path d="M91.145,43.416h-6.584c-1.818,0-3.293-1.474-3.293-3.292c0-1.817,1.475-3.292,3.293-3.292h6.584
	c1.818,0,3.289,1.475,3.289,3.292C94.434,41.944,92.963,43.416,91.145,43.416z M78.213,21.506c-1.285,1.285-3.371,1.285-4.654,0
	c-1.285-1.284-1.285-3.369,0-4.655l4.654-4.654c1.283-1.284,3.369-1.284,4.652,0c1.287,1.285,1.287,3.371,0,4.654L78.213,21.506z
	 M73.357,47.193L73.357,47.193c2.881,3.43,4.621,7.851,4.621,12.679c0,8.598-5.5,15.888-13.166,18.601v-7.211
	c3.934-2.276,6.582-6.52,6.582-11.39c0-7.269-5.895-13.164-13.166-13.164c-2.635,0-5.074,0.79-7.131,2.125
	c-2.029-8.751-9.833-15.291-19.2-15.291c-10.906,0-19.748,8.842-19.748,19.748c0,5.843,2.551,11.073,6.582,14.689v8.092
	C10.871,71.515,5.566,63.032,5.566,53.29c0-14.542,11.79-26.33,26.332-26.33c2.587,0,5.083,0.38,7.446,1.076
	c3.611-4.652,9.246-7.66,15.594-7.66c10.906,0,19.748,8.841,19.748,19.748C74.686,42.619,74.203,44.996,73.357,47.193z
	 M54.938,26.96c-3.643,0-6.937,1.478-9.32,3.868c3.853,2.361,7.055,5.682,9.266,9.635c1.092-0.186,2.199-0.337,3.346-0.337
	c3.5,0,6.779,0.92,9.629,2.513l0,0c0.158-0.813,0.246-1.652,0.246-2.513C68.104,32.853,62.209,26.96,54.938,26.96z M54.938,13.793
	c-1.816,0-3.291-1.474-3.291-3.292V3.919c0-1.817,1.475-3.29,3.291-3.29c1.818,0,3.291,1.473,3.291,3.29v6.582
	C58.229,12.321,56.756,13.793,54.938,13.793z M31.664,21.506l-4.654-4.655c-1.286-1.283-1.286-3.369,0-4.654
	c1.285-1.284,3.369-1.284,4.654,0l4.655,4.654c1.284,1.286,1.284,3.371,0,4.655C35.033,22.791,32.951,22.791,31.664,21.506z
	 M28.607,79.62c-1.817,0-1.646-1.472-1.646-3.288V63.164c0-1.816-0.171-3.292,1.646-3.292c1.817,0,1.645,1.476,1.645,3.292v13.168
	C30.251,78.148,30.422,79.62,28.607,79.62z M28.607,86.204c1.817,0,3.291,1.475,3.291,3.292c0,1.819-1.475,3.291-3.291,3.291
	c-1.817,0-3.292-1.472-3.292-3.291C25.315,87.679,26.789,86.204,28.607,86.204z M41.773,86.204c-1.817,0-1.646-1.473-1.646-3.292
	V69.748c0-1.818-0.171-3.292,1.646-3.292c1.817,0,1.644,1.474,1.644,3.292v13.164C43.417,84.731,43.587,86.204,41.773,86.204z
	 M41.773,92.787c1.817,0,3.29,1.474,3.29,3.292s-1.476,3.292-3.29,3.292c-1.817,0-3.292-1.474-3.292-3.292
	C38.481,94.26,39.954,92.787,41.773,92.787z M54.938,79.62c-1.816,0-1.645-1.472-1.645-3.288V63.164
	c0-1.816-0.172-3.292,1.645-3.292c1.818,0,1.645,1.476,1.645,3.292v13.168C56.582,78.148,56.756,79.62,54.938,79.62z M54.938,86.204
	c1.818,0,3.291,1.475,3.291,3.292c0,1.819-1.473,3.291-3.291,3.291c-1.816,0-3.291-1.472-3.291-3.291
	C51.646,87.679,53.121,86.204,54.938,86.204z"/>
</svg>
