<?xml version="1.0" encoding="utf-8"?>
<!-- Generator: Adobe Illustrator 16.0.0, SVG Export Plug-In . SVG Version: 6.00 Build 0)  -->
<!DOCTYPE svg PUBLIC "-//W3C//DTD SVG 1.1//EN" "http://www.w3.org/Graphics/SVG/1.1/DTD/svg11.dtd">
<svg version="1.1" id="Layer_1" xmlns="http://www.w3.org/2000/svg" xmlns:xlink="http://www.w3.org/1999/xlink" x="0px" y="0px"
	 width="100px" height="100px" viewBox="0 0 100 100" enable-background="new 0 0 100 100" xml:space="preserve">
<path d="M90.992,43.44h-6.559c-1.811,0-3.281-1.468-3.281-3.28c0-1.811,1.471-3.279,3.281-3.279h6.559
	c1.812,0,3.279,1.469,3.279,3.279C94.271,41.975,92.805,43.44,90.992,43.44z M78.109,21.609c-1.281,1.281-3.359,1.281-4.639,0
	c-1.279-1.279-1.279-3.356,0-4.638l4.639-4.638c1.279-1.278,3.357-1.278,4.637,0c1.281,1.281,1.281,3.359,0,4.638L78.109,21.609z
	 M73.271,47.203L73.271,47.203c2.871,3.417,4.604,7.823,4.604,12.633c0,8.567-5.48,15.829-13.117,18.532v-7.184
	c3.918-2.268,6.559-6.495,6.559-11.349c0-7.241-5.873-13.116-13.117-13.116c-2.625,0-5.057,0.787-7.105,2.117
	c-2.023-8.719-9.798-15.234-19.13-15.234c-10.866,0-19.676,8.81-19.676,19.676c0,5.821,2.542,11.032,6.558,14.636v8.062
	c-7.832-4.54-13.118-12.99-13.118-22.697c0-14.488,11.747-26.233,26.235-26.233c2.579,0,5.065,0.379,7.418,1.071
	c3.598-4.636,9.212-7.631,15.538-7.631c10.865,0,19.676,8.808,19.676,19.675C74.596,42.646,74.115,45.015,73.271,47.203z
	 M54.92,27.045c-3.629,0-6.912,1.472-9.287,3.854c3.839,2.354,7.029,5.66,9.232,9.6c1.088-0.186,2.191-0.336,3.334-0.336
	c3.484,0,6.752,0.917,9.594,2.504l0,0c0.158-0.811,0.242-1.646,0.242-2.504C68.035,32.915,62.164,27.045,54.92,27.045z
	 M54.92,13.925c-1.809,0-3.279-1.468-3.279-3.279V4.088c0-1.811,1.471-3.278,3.279-3.278c1.811,0,3.279,1.468,3.279,3.278v6.558
	C58.199,12.459,56.73,13.925,54.92,13.925z M31.73,21.609l-4.637-4.638c-1.281-1.278-1.281-3.356,0-4.638
	c1.28-1.278,3.356-1.278,4.637,0l4.637,4.638c1.279,1.281,1.279,3.358,0,4.638C35.088,22.891,33.013,22.891,31.73,21.609z
	 M28.685,79.512c-1.81,0-1.639-1.467-1.639-3.277V63.116c0-1.809-0.17-3.28,1.639-3.28c1.811,0,1.639,1.472,1.639,3.28v13.118
	C30.323,78.045,30.494,79.512,28.685,79.512z M28.685,86.071c1.811,0,3.279,1.471,3.279,3.28c0,1.812-1.469,3.279-3.279,3.279
	s-3.279-1.468-3.279-3.279C25.406,87.542,26.874,86.071,28.685,86.071z M41.802,86.071c-1.81,0-1.639-1.467-1.639-3.28V69.677
	c0-1.812-0.171-3.28,1.639-3.28c1.812,0,1.639,1.468,1.639,3.28v13.114C43.441,84.604,43.611,86.071,41.802,86.071z M41.802,92.631
	c1.812,0,3.279,1.468,3.279,3.279c0,1.812-1.47,3.28-3.279,3.28c-1.81,0-3.279-1.468-3.279-3.28
	C38.523,94.099,39.991,92.631,41.802,92.631z M54.92,79.512c-1.809,0-1.639-1.467-1.639-3.277V63.116c0-1.809-0.17-3.28,1.639-3.28
	c1.811,0,1.639,1.472,1.639,3.28v13.118C56.559,78.045,56.73,79.512,54.92,79.512z M54.92,86.071c1.811,0,3.279,1.471,3.279,3.28
	c0,1.812-1.469,3.279-3.279,3.279c-1.809,0-3.279-1.468-3.279-3.279C51.641,87.542,53.111,86.071,54.92,86.071z"/>
</svg>
