<?xml version="1.0" encoding="utf-8"?>
<!-- Generator: Adobe Illustrator 16.0.0, SVG Export Plug-In . SVG Version: 6.00 Build 0)  -->
<!DOCTYPE svg PUBLIC "-//W3C//DTD SVG 1.1//EN" "http://www.w3.org/Graphics/SVG/1.1/DTD/svg11.dtd">
<svg version="1.1" id="Layer_1" xmlns="http://www.w3.org/2000/svg" xmlns:xlink="http://www.w3.org/1999/xlink" x="0px" y="0px"
	 width="100px" height="100px" viewBox="0 0 100 100" enable-background="new 0 0 100 100" xml:space="preserve">
<path d="M90.925,43.451h-6.55c-1.808,0-3.274-1.465-3.274-3.273s1.467-3.274,3.274-3.274h6.55c1.808,0,3.272,1.466,3.272,3.274
	C94.197,41.987,92.732,43.451,90.925,43.451z M78.062,21.658c-1.278,1.278-3.353,1.278-4.631,0c-1.276-1.277-1.276-3.352,0-4.63
	l4.631-4.631c1.278-1.276,3.351-1.276,4.629,0c1.278,1.279,1.278,3.354,0,4.631L78.062,21.658z M73.233,47.208L73.233,47.208
	c2.864,3.412,4.595,7.81,4.595,12.612c0,8.551-5.471,15.802-13.095,18.5v-7.172c3.911-2.264,6.548-6.485,6.548-11.328
	c0-7.23-5.863-13.095-13.097-13.095c-2.619,0-5.047,0.785-7.095,2.113c-2.016-8.704-9.779-15.208-19.096-15.208
	c-10.848,0-19.642,8.794-19.642,19.642c0,5.812,2.538,11.015,6.546,14.612v8.048C11.08,71.399,5.803,62.963,5.803,53.271
	c0-14.463,11.727-26.189,26.191-26.189c2.574,0,5.057,0.379,7.406,1.07c3.591-4.627,9.196-7.618,15.512-7.618
	c10.848,0,19.642,8.793,19.642,19.643C74.554,42.659,74.075,45.022,73.233,47.208z M54.912,27.083c-3.622,0-6.9,1.47-9.271,3.848
	c3.832,2.349,7.016,5.651,9.215,9.583c1.087-0.186,2.188-0.336,3.328-0.336c3.479,0,6.743,0.916,9.579,2.5l0,0
	c0.155-0.809,0.242-1.643,0.242-2.5C68.006,32.944,62.143,27.083,54.912,27.083z M54.912,13.986c-1.807,0-3.274-1.465-3.274-3.274
	V4.166c0-1.807,1.468-3.273,3.274-3.273c1.806,0,3.272,1.466,3.272,3.273v6.546C58.185,12.523,56.718,13.986,54.912,13.986z
	 M31.761,21.658l-4.628-4.63c-1.279-1.277-1.279-3.352,0-4.631c1.277-1.276,3.351-1.276,4.628,0l4.63,4.631
	c1.277,1.278,1.277,3.353,0,4.63C35.113,22.937,33.042,22.937,31.761,21.658z M28.722,79.462c-1.808,0-1.638-1.465-1.638-3.271
	V63.094c0-1.807-0.17-3.273,1.638-3.273c1.807,0,1.635,1.467,1.635,3.273V76.19C30.357,77.997,30.527,79.462,28.722,79.462z
	 M28.722,86.01c1.807,0,3.272,1.469,3.272,3.274c0,1.811-1.467,3.274-3.272,3.274c-1.808,0-3.274-1.464-3.274-3.274
	C25.447,87.479,26.912,86.01,28.722,86.01z M41.817,86.01c-1.807,0-1.637-1.465-1.637-3.273V69.643c0-1.809-0.17-3.274,1.637-3.274
	c1.808,0,1.635,1.466,1.635,3.274v13.094C43.452,84.545,43.622,86.01,41.817,86.01z M41.817,92.559c1.808,0,3.272,1.466,3.272,3.274
	c0,1.808-1.468,3.274-3.272,3.274c-1.807,0-3.274-1.467-3.274-3.274C38.542,94.023,40.008,92.559,41.817,92.559z M54.912,79.462
	c-1.807,0-1.638-1.465-1.638-3.271V63.094c0-1.807-0.169-3.273,1.638-3.273c1.806,0,1.635,1.467,1.635,3.273V76.19
	C56.547,77.997,56.718,79.462,54.912,79.462z M54.912,86.01c1.806,0,3.272,1.469,3.272,3.274c0,1.811-1.467,3.274-3.272,3.274
	c-1.807,0-3.274-1.464-3.274-3.274C51.638,87.479,53.105,86.01,54.912,86.01z"/>
</svg>
