<?xml version="1.0" encoding="utf-8"?>
<!-- Generator: Adobe Illustrator 16.0.0, SVG Export Plug-In . SVG Version: 6.00 Build 0)  -->
<!DOCTYPE svg PUBLIC "-//W3C//DTD SVG 1.1//EN" "http://www.w3.org/Graphics/SVG/1.1/DTD/svg11.dtd">
<svg version="1.1" id="Layer_1" xmlns="http://www.w3.org/2000/svg" xmlns:xlink="http://www.w3.org/1999/xlink" x="0px" y="0px"
	 width="100px" height="100px" viewBox="0 0 100 100" enable-background="new 0 0 100 100" xml:space="preserve">
<g>
	<g>
		<path d="M72.364,20.418c-1.558,0-3.062,0.206-4.548,0.458C61.695,9.934,50.009,2.527,36.578,2.527
			c-19.763,0-35.785,16.021-35.785,35.783c0,13.402,7.382,25.067,18.291,31.197c0.617-2.822,1.995-5.514,4.189-7.707l0.128-0.127
			C15.25,57.064,9.743,48.336,9.743,38.311c0-14.821,12.016-26.838,26.837-26.838c12.731,0,23.338,8.89,26.095,20.781
			c2.796-1.812,6.111-2.888,9.689-2.888c9.883,0,17.896,8.01,17.896,17.892c0,7.702-4.883,14.25-11.711,16.772
			c1.763,2.564,2.672,5.526,2.732,8.515c10.436-3.679,17.926-13.594,17.926-25.287C99.203,32.435,87.188,20.418,72.364,20.418z
			 M34.341,63.382l-4.743,4.745c-2.62,2.621-2.62,6.867,0,9.489c2.621,2.621,6.869,2.621,9.488,0c2.621-2.622,2.621-6.868,0-9.489
			L34.341,63.382z M49.999,81.272l-4.743,4.745c-2.622,2.621-2.622,6.872,0,9.489c2.619,2.621,6.867,2.621,9.484,0
			c2.622-2.617,2.622-6.868,0-9.489L49.999,81.272z M65.654,63.382l-4.742,4.745c-2.624,2.621-2.624,6.867,0,9.489
			c2.619,2.621,6.865,2.621,9.486,0c2.621-2.622,2.621-6.868,0-9.489L65.654,63.382z"/>
	</g>
</g>
</svg>
